<?xml version="1.0" encoding="UTF-8" standalone="no"?>
<svg
   xmlns:dc="http://purl.org/dc/elements/1.1/"
   xmlns:cc="http://creativecommons.org/ns#"
   xmlns:rdf="http://www.w3.org/1999/02/22-rdf-syntax-ns#"
   xmlns:svg="http://www.w3.org/2000/svg"
   xmlns="http://www.w3.org/2000/svg"
   xmlns:sodipodi="http://sodipodi.sourceforge.net/DTD/sodipodi-0.dtd"
   xmlns:inkscape="http://www.inkscape.org/namespaces/inkscape"
   version="1.1"
   id="Layer_2"
   x="0px"
   y="0px"
   width="400.667px"
   height="400.666px"
   viewBox="0 0 400.667 400.666"
   enable-background="new 0 0 400.667 400.666"
   xml:space="preserve"
   sodipodi:docname="heading_mechanics.svg"
   inkscape:version="0.92.5 (2060ec1f9f, 2020-04-08)"><metadata
   id="metadata54"><rdf:RDF><cc:Work
       rdf:about=""><dc:format>image/svg+xml</dc:format><dc:type
         rdf:resource="http://purl.org/dc/dcmitype/StillImage" /></cc:Work></rdf:RDF></metadata><defs
   id="defs52"><filter
     inkscape:collect="always"
     style="color-interpolation-filters:sRGB"
     id="filter882"><feBlend
       inkscape:collect="always"
       mode="overlay"
       in2="BackgroundImage"
       id="feBlend884" /></filter></defs><sodipodi:namedview
   pagecolor="#ffffff"
   bordercolor="#666666"
   borderopacity="1"
   objecttolerance="10"
   gridtolerance="10"
   guidetolerance="10"
   inkscape:pageopacity="0"
   inkscape:pageshadow="2"
   inkscape:window-width="2488"
   inkscape:window-height="1376"
   id="namedview50"
   showgrid="false"
   inkscape:zoom="1.6659982"
   inkscape:cx="77.534411"
   inkscape:cy="183.0675"
   inkscape:window-x="1672"
   inkscape:window-y="27"
   inkscape:window-maximized="1"
   inkscape:current-layer="Layer_2" />
<filter
   filterUnits="objectBoundingBox"
   id="AI_Shadow_1">
	<feGaussianBlur
   stdDeviation="5"
   result="blur"
   in="SourceAlpha"
   id="feGaussianBlur2" />
	<feOffset
   dy="0"
   dx="0"
   result="offsetBlurredAlpha"
   in="blur"
   id="feOffset4" />
	<feMerge
   id="feMerge10">
		<feMergeNode
   in="offsetBlurredAlpha"
   id="feMergeNode6" />
		<feMergeNode
   in="SourceGraphic"
   id="feMergeNode8" />
	</feMerge>
</filter>
<g
   filter="url(#AI_Shadow_1)"
   id="g15"
   style="filter:url(#filter882)">
	
</g>








<path
   id="path1645"
   style="fill:none;stroke:#ff7f00;stroke-width:3.38975477;stroke-linecap:butt;stroke-linejoin:miter;stroke-miterlimit:4;stroke-dasharray:none;stroke-opacity:1"
   d="m 175.32576,274.13411 -2.19146,0.13488 1.18414,23.89243 z m 1.31173,51.78216 -5.30162,-0.0578 2.58222,6.72821 z m 1.26067,-1.14784 1.4908,-19.92528 21.02919,0.37177 20.25303,-0.0896 1.49081,19.92528 -21.74384,-0.0511 z m 0.4879,-21.08993 c -0.48829,7.11277 -0.90445,13.96642 -1.45023,21.07366 l -5.89361,-0.0656 -13.57905,-107.20367 0.66786,-25.67211 8.33346,-85.10788 c 0.0132,-0.0215 1.12732,-33.509295 34.15324,-32.423035 33.02592,-1.08626 34.83854,30.705085 34.85173,30.726645 l 7.2358,86.80427 0.66787,25.67211 -14.35521,107.48591 -5.89359,0.0656 c -0.54578,-7.10722 -0.96196,-13.96086 -1.45023,-21.07365 h -21.25595 z m 46.34831,-29.26214 2.19147,0.13486 -1.18414,23.89243 z m -1.31171,51.78216 5.30162,-0.0578 -2.58223,6.7282 z"
   inkscape:connector-curvature="0"
   sodipodi:nodetypes="cccccccccccccccccccccccccccccccccccccc" /><path
   id="rect1664"
   style="opacity:1;fill:none;fill-opacity:1;stroke:#ff7f00;stroke-width:3.38975477;stroke-linecap:butt;stroke-linejoin:round;stroke-miterlimit:4;stroke-dasharray:none;stroke-dashoffset:0;stroke-opacity:1"
   d="m 193.63777,266.04642 h 14.3756 c 1.63266,0 2.94704,1.60054 2.94704,3.58867 0,1.98813 -1.31438,3.58866 -2.94704,3.58866 h -14.3756 c -1.63266,0 -2.94703,-1.60053 -2.94703,-3.58866 0,-1.98813 1.31437,-3.58867 2.94703,-3.58867 z m 6.99073,-123.19507 c 6.40295,0 11.55767,6.86622 11.55767,15.39512 v 91.89899 c 0,8.5289 -5.15472,15.39512 -11.55767,15.39512 -6.40296,0 -11.55768,-6.86622 -11.55768,-15.39512 v -91.89899 c 0,-8.5289 5.15472,-15.39512 11.55768,-15.39512 z"
   inkscape:connector-curvature="0" /><path
   style="fill:none;fill-opacity:1;stroke:#ff7f00;stroke-width:2.72328305;stroke-linecap:butt;stroke-linejoin:miter;stroke-miterlimit:4;stroke-dasharray:none;stroke-opacity:1"
   d="m 201.02363,41.520079 14.84538,22.289124 -30.44993,-0.05835 z"
   id="path858"
   inkscape:connector-curvature="0"
   sodipodi:nodetypes="cccc" /></svg>