<?xml version="1.0" encoding="UTF-8" standalone="no"?>
<svg
   xmlns:dc="http://purl.org/dc/elements/1.1/"
   xmlns:cc="http://creativecommons.org/ns#"
   xmlns:rdf="http://www.w3.org/1999/02/22-rdf-syntax-ns#"
   xmlns:svg="http://www.w3.org/2000/svg"
   xmlns="http://www.w3.org/2000/svg"
   xmlns:sodipodi="http://sodipodi.sourceforge.net/DTD/sodipodi-0.dtd"
   xmlns:inkscape="http://www.inkscape.org/namespaces/inkscape"
   version="1.1"
   id="Layer_2"
   x="0px"
   y="0px"
   width="400.667px"
   height="400.666px"
   viewBox="0 0 400.667 400.666"
   enable-background="new 0 0 400.667 400.666"
   xml:space="preserve"
   sodipodi:docname="heading_yaw.svg"
   inkscape:version="0.92.5 (2060ec1f9f, 2020-04-08)"><metadata
   id="metadata213"><rdf:RDF><cc:Work
       rdf:about=""><dc:format>image/svg+xml</dc:format><dc:type
         rdf:resource="http://purl.org/dc/dcmitype/StillImage" /></cc:Work></rdf:RDF></metadata><defs
   id="defs211" /><sodipodi:namedview
   pagecolor="#ffffff"
   bordercolor="#666666"
   borderopacity="1"
   objecttolerance="10"
   gridtolerance="10"
   guidetolerance="10"
   inkscape:pageopacity="0"
   inkscape:pageshadow="2"
   inkscape:window-width="2488"
   inkscape:window-height="1376"
   id="namedview209"
   showgrid="false"
   inkscape:zoom="2.3560772"
   inkscape:cx="25.100083"
   inkscape:cy="200.83772"
   inkscape:window-x="1672"
   inkscape:window-y="27"
   inkscape:window-maximized="1"
   inkscape:current-layer="Layer_2" />

<line
   stroke-miterlimit="10"
   x1="200.33269"
   y1="395.51346"
   x2="200.33269"
   y2="364.99179"
   id="line4"
   style="fill:#0094ce;fill-opacity:1;stroke:#0094ce;stroke-width:2.60512686;stroke-miterlimit:10;stroke-opacity:1" />
<line
   stroke-miterlimit="10"
   x1="217.37415"
   y1="394.76971"
   x2="215.55966"
   y2="374.03421"
   id="line6"
   style="fill:#0094ce;fill-opacity:1;stroke:#0094ce;stroke-width:2.60512686;stroke-miterlimit:10;stroke-opacity:1" />
<line
   stroke-miterlimit="10"
   x1="250.93599"
   y1="388.85214"
   x2="245.54858"
   y2="368.74707"
   id="line8"
   style="fill:#0094ce;fill-opacity:1;stroke:#0094ce;stroke-width:2.60512686;stroke-miterlimit:10;stroke-opacity:1" />
<line
   stroke-miterlimit="10"
   x1="282.96082"
   y1="377.19553"
   x2="274.16461"
   y2="358.33179"
   id="line10"
   style="fill:#0094ce;fill-opacity:1;stroke:#0094ce;stroke-width:2.60512686;stroke-miterlimit:10;stroke-opacity:1" />
<line
   stroke-miterlimit="10"
   x1="312.47559"
   y1="360.15668"
   x2="300.53629"
   y2="343.10611"
   id="line12"
   style="fill:#0094ce;fill-opacity:1;stroke:#0094ce;stroke-width:2.60512686;stroke-miterlimit:10;stroke-opacity:1" />
<line
   stroke-miterlimit="10"
   x1="338.58289"
   y1="338.25018"
   x2="323.86392"
   y2="323.53122"
   id="line14"
   style="fill:#0094ce;fill-opacity:1;stroke:#0094ce;stroke-width:2.60512686;stroke-miterlimit:10;stroke-opacity:1" />
<line
   stroke-miterlimit="10"
   x1="360.49069"
   y1="312.14288"
   x2="343.43881"
   y2="300.2049"
   id="line16"
   style="fill:#0094ce;fill-opacity:1;stroke:#0094ce;stroke-width:2.60512686;stroke-miterlimit:10;stroke-opacity:1" />
<line
   stroke-miterlimit="10"
   x1="377.53082"
   y1="282.62943"
   x2="358.66449"
   y2="273.83322"
   id="line18"
   style="fill:#0094ce;fill-opacity:1;stroke:#0094ce;stroke-width:2.60512686;stroke-miterlimit:10;stroke-opacity:1" />
<line
   stroke-miterlimit="10"
   x1="389.18747"
   y1="250.6046"
   x2="369.07977"
   y2="245.21719"
   id="line20"
   style="fill:#0094ce;fill-opacity:1;stroke:#0094ce;stroke-width:2.60512686;stroke-miterlimit:10;stroke-opacity:1" />
<line
   stroke-miterlimit="10"
   x1="395.10632"
   y1="217.04143"
   x2="374.36819"
   y2="215.22827"
   id="line22"
   style="fill:#0094ce;fill-opacity:1;stroke:#0094ce;stroke-width:2.60512686;stroke-miterlimit:10;stroke-opacity:1" />
<line
   stroke-miterlimit="10"
   x1="395.10632"
   y1="182.95987"
   x2="374.36951"
   y2="184.77695"
   id="line24"
   style="fill:#0094ce;fill-opacity:1;stroke:#0094ce;stroke-width:2.60512686;stroke-miterlimit:10;stroke-opacity:1" />
<line
   stroke-miterlimit="10"
   x1="389.18878"
   y1="149.39673"
   x2="369.0824"
   y2="154.78673"
   id="line26"
   style="fill:#0094ce;fill-opacity:1;stroke:#0094ce;stroke-width:2.60512686;stroke-miterlimit:10;stroke-opacity:1" />
<line
   stroke-miterlimit="10"
   x1="377.53342"
   y1="117.3719"
   x2="358.66843"
   y2="126.17072"
   id="line28"
   style="fill:#0094ce;fill-opacity:1;stroke:#0094ce;stroke-width:2.60512686;stroke-miterlimit:10;stroke-opacity:1" />
<line
   stroke-miterlimit="10"
   x1="360.49329"
   y1="87.857109"
   x2="343.44403"
   y2="99.797707"
   id="line30"
   style="fill:#0094ce;fill-opacity:1;stroke:#0094ce;stroke-width:2.60512686;stroke-miterlimit:10;stroke-opacity:1" />
<line
   stroke-miterlimit="10"
   x1="338.58545"
   y1="61.749836"
   x2="323.86914"
   y2="76.468803"
   id="line32"
   style="fill:#0094ce;fill-opacity:1;stroke:#0094ce;stroke-width:2.60512686;stroke-miterlimit:10;stroke-opacity:1" />
<line
   stroke-miterlimit="10"
   x1="312.47818"
   y1="39.843323"
   x2="300.54153"
   y2="56.893883"
   id="line34"
   style="fill:#0094ce;fill-opacity:1;stroke:#0094ce;stroke-width:2.60512686;stroke-miterlimit:10;stroke-opacity:1" />
<line
   stroke-miterlimit="10"
   x1="282.96472"
   y1="22.801889"
   x2="274.16983"
   y2="41.668213"
   id="line36"
   style="fill:#0094ce;fill-opacity:1;stroke:#0094ce;stroke-width:2.60512686;stroke-miterlimit:10;stroke-opacity:1" />
<line
   stroke-miterlimit="10"
   x1="250.9399"
   y1="11.145248"
   x2="245.5538"
   y2="31.251614"
   id="line38"
   style="fill:#0094ce;fill-opacity:1;stroke:#0094ce;stroke-width:2.60512686;stroke-miterlimit:10;stroke-opacity:1" />
<line
   stroke-miterlimit="10"
   x1="217.37674"
   y1="5.2264023"
   x2="215.56487"
   y2="25.963209"
   id="line40"
   style="fill:#0094ce;fill-opacity:1;stroke:#0094ce;stroke-width:2.60512686;stroke-miterlimit:10;stroke-opacity:1" />
<line
   stroke-miterlimit="10"
   x1="183.29648"
   y1="5.2264023"
   x2="185.11224"
   y2="25.961906"
   id="line42"
   style="fill:#0094ce;fill-opacity:1;stroke:#0094ce;stroke-width:2.60512686;stroke-miterlimit:10;stroke-opacity:1" />
<line
   stroke-miterlimit="10"
   x1="149.73463"
   y1="11.143947"
   x2="155.12334"
   y2="31.24901"
   id="line44"
   style="fill:#0094ce;fill-opacity:1;stroke:#0094ce;stroke-width:2.60512686;stroke-miterlimit:10;stroke-opacity:1" />
<line
   stroke-miterlimit="10"
   x1="117.7085"
   y1="22.799282"
   x2="126.50732"
   y2="41.66431"
   id="line46"
   style="fill:#0094ce;fill-opacity:1;stroke:#0094ce;stroke-width:2.60512686;stroke-miterlimit:10;stroke-opacity:1" />
<line
   stroke-miterlimit="10"
   x1="88.19371"
   y1="39.839417"
   x2="100.13431"
   y2="56.888664"
   id="line48"
   style="fill:#0094ce;fill-opacity:1;stroke:#0094ce;stroke-width:2.60512686;stroke-miterlimit:10;stroke-opacity:1" />
<line
   stroke-miterlimit="10"
   x1="62.086433"
   y1="61.74593"
   x2="76.805405"
   y2="76.463585"
   id="line50"
   style="fill:#0094ce;fill-opacity:1;stroke:#0094ce;stroke-width:2.60512686;stroke-miterlimit:10;stroke-opacity:1" />
<line
   stroke-miterlimit="10"
   x1="40.178619"
   y1="87.853203"
   x2="57.229179"
   y2="99.789902"
   id="line52"
   style="fill:#0094ce;fill-opacity:1;stroke:#0094ce;stroke-width:2.60512686;stroke-miterlimit:10;stroke-opacity:1" />
<line
   stroke-miterlimit="10"
   x1="23.138487"
   y1="117.36799"
   x2="42.003513"
   y2="126.1629"
   id="line54"
   style="fill:#0094ce;fill-opacity:1;stroke:#0094ce;stroke-width:2.60512686;stroke-miterlimit:10;stroke-opacity:1" />
<line
   stroke-miterlimit="10"
   x1="11.48185"
   y1="149.39281"
   x2="31.588224"
   y2="154.77892"
   id="line56"
   style="fill:#0094ce;fill-opacity:1;stroke:#0094ce;stroke-width:2.60512686;stroke-miterlimit:10;stroke-opacity:1" />
<line
   stroke-miterlimit="10"
   x1="5.5630031"
   y1="182.95596"
   x2="26.298508"
   y2="184.76782"
   id="line58"
   style="fill:#0094ce;fill-opacity:1;stroke:#0094ce;stroke-width:2.60512686;stroke-miterlimit:10;stroke-opacity:1" />
<line
   stroke-miterlimit="10"
   x1="5.5617013"
   y1="217.03622"
   x2="26.297207"
   y2="215.22046"
   id="line60"
   style="fill:#0094ce;fill-opacity:1;stroke:#0094ce;stroke-width:2.60512686;stroke-miterlimit:10;stroke-opacity:1" />
<line
   stroke-miterlimit="10"
   x1="11.479246"
   y1="250.59808"
   x2="31.585609"
   y2="245.21068"
   id="line62"
   style="fill:#0094ce;fill-opacity:1;stroke:#0094ce;stroke-width:2.60512686;stroke-miterlimit:10;stroke-opacity:1" />
<line
   stroke-miterlimit="10"
   x1="23.134581"
   y1="282.62421"
   x2="41.999607"
   y2="273.82672"
   id="line64"
   style="fill:#0094ce;fill-opacity:1;stroke:#0094ce;stroke-width:2.60512686;stroke-miterlimit:10;stroke-opacity:1" />
<line
   stroke-miterlimit="10"
   x1="40.173412"
   y1="312.13901"
   x2="57.223972"
   y2="300.19968"
   id="line66"
   style="fill:#0094ce;fill-opacity:1;stroke:#0094ce;stroke-width:2.60512686;stroke-miterlimit:10;stroke-opacity:1" />
<line
   stroke-miterlimit="10"
   x1="62.079926"
   y1="338.24759"
   x2="76.798897"
   y2="323.52731"
   id="line68"
   style="fill:#0094ce;fill-opacity:1;stroke:#0094ce;stroke-width:2.60512686;stroke-miterlimit:10;stroke-opacity:1" />
<line
   stroke-miterlimit="10"
   x1="88.187202"
   y1="360.1554"
   x2="100.1252"
   y2="343.10355"
   id="line70"
   style="fill:#0094ce;fill-opacity:1;stroke:#0094ce;stroke-width:2.60512686;stroke-miterlimit:10;stroke-opacity:1" />
<line
   stroke-miterlimit="10"
   x1="117.70069"
   y1="377.19681"
   x2="126.49689"
   y2="358.33051"
   id="line72"
   style="fill:#0094ce;fill-opacity:1;stroke:#0094ce;stroke-width:2.60512686;stroke-miterlimit:10;stroke-opacity:1" />
<line
   stroke-miterlimit="10"
   x1="149.72551"
   y1="388.85345"
   x2="155.11292"
   y2="368.74582"
   id="line74"
   style="fill:#0094ce;fill-opacity:1;stroke:#0094ce;stroke-width:2.60512686;stroke-miterlimit:10;stroke-opacity:1" />
<line
   stroke-miterlimit="10"
   x1="183.28867"
   y1="394.77231"
   x2="185.10182"
   y2="374.03549"
   id="line76"
   style="fill:#0094ce;fill-opacity:1;stroke:#0094ce;stroke-width:2.60512686;stroke-miterlimit:10;stroke-opacity:1" />
<line
   stroke-miterlimit="10"
   x1="234.28401"
   y1="392.54364"
   x2="228.98518"
   y2="362.48438"
   id="line78"
   style="fill:#0094ce;fill-opacity:1;stroke:#0094ce;stroke-width:2.60512686;stroke-miterlimit:10;stroke-opacity:1" />
<line
   stroke-miterlimit="10"
   x1="267.20239"
   y1="383.72266"
   x2="256.76495"
   y2="355.04153"
   id="line80"
   style="fill:#0094ce;fill-opacity:1;stroke:#0094ce;stroke-width:2.60512686;stroke-miterlimit:10;stroke-opacity:1" />
<line
   stroke-miterlimit="10"
   x1="298.09009"
   y1="369.32022"
   x2="282.82925"
   y2="342.8873"
   id="line82"
   style="fill:#0094ce;fill-opacity:1;stroke:#0094ce;stroke-width:2.60512686;stroke-miterlimit:10;stroke-opacity:1" />
<line
   stroke-miterlimit="10"
   x1="326.00793"
   y1="349.77264"
   x2="306.3887"
   y2="326.39163"
   id="line84"
   style="fill:#0094ce;fill-opacity:1;stroke:#0094ce;stroke-width:2.60512686;stroke-miterlimit:10;stroke-opacity:1" />
<line
   stroke-miterlimit="10"
   x1="350.10663"
   y1="325.67523"
   x2="326.72565"
   y2="306.05475"
   id="line86"
   style="fill:#0094ce;fill-opacity:1;stroke:#0094ce;stroke-width:2.60512686;stroke-miterlimit:10;stroke-opacity:1" />
<line
   stroke-miterlimit="10"
   x1="369.65424"
   y1="297.75739"
   x2="343.22131"
   y2="282.49527"
   id="line88"
   style="fill:#0094ce;fill-opacity:1;stroke:#0094ce;stroke-width:2.60512686;stroke-miterlimit:10;stroke-opacity:1" />
<line
   stroke-miterlimit="10"
   x1="384.05667"
   y1="266.86972"
   x2="355.37683"
   y2="256.43097"
   id="line90"
   style="fill:#0094ce;fill-opacity:1;stroke:#0094ce;stroke-width:2.60512686;stroke-miterlimit:10;stroke-opacity:1" />
<line
   stroke-miterlimit="10"
   x1="392.87766"
   y1="233.95132"
   x2="362.82098"
   y2="228.6512"
   id="line92"
   style="fill:#0094ce;fill-opacity:1;stroke:#0094ce;stroke-width:2.60512686;stroke-miterlimit:10;stroke-opacity:1" />
<line
   stroke-miterlimit="10"
   x1="395.84747"
   y1="200"
   x2="365.32581"
   y2="200"
   id="line94"
   style="fill:#0094ce;fill-opacity:1;stroke:#0094ce;stroke-width:2.60512686;stroke-miterlimit:10;stroke-opacity:1" />
<line
   stroke-miterlimit="10"
   x1="392.87766"
   y1="166.05"
   x2="362.82098"
   y2="171.34882"
   id="line96"
   style="fill:#0094ce;fill-opacity:1;stroke:#0094ce;stroke-width:2.60512686;stroke-miterlimit:10;stroke-opacity:1" />
<line
   stroke-miterlimit="10"
   x1="384.05667"
   y1="133.13161"
   x2="355.37683"
   y2="143.56906"
   id="line98"
   style="fill:#0094ce;fill-opacity:1;stroke:#0094ce;stroke-width:2.60512686;stroke-miterlimit:10;stroke-opacity:1" />
<line
   stroke-miterlimit="10"
   x1="369.65424"
   y1="102.24392"
   x2="343.22263"
   y2="117.50477"
   id="line100"
   style="fill:#0094ce;fill-opacity:1;stroke:#0094ce;stroke-width:2.60512686;stroke-miterlimit:10;stroke-opacity:1" />
<line
   stroke-miterlimit="10"
   x1="350.10663"
   y1="74.327385"
   x2="326.72696"
   y2="93.945297"
   id="line102"
   style="fill:#0094ce;fill-opacity:1;stroke:#0094ce;stroke-width:2.60512686;stroke-miterlimit:10;stroke-opacity:1" />
<line
   stroke-miterlimit="10"
   x1="326.00793"
   y1="50.228661"
   x2="306.39001"
   y2="73.608376"
   id="line104"
   style="fill:#0094ce;fill-opacity:1;stroke:#0094ce;stroke-width:2.60512686;stroke-miterlimit:10;stroke-opacity:1" />
<line
   stroke-miterlimit="10"
   x1="298.0914"
   y1="30.681095"
   x2="282.83057"
   y2="57.112713"
   id="line106"
   style="fill:#0094ce;fill-opacity:1;stroke:#0094ce;stroke-width:2.60512686;stroke-miterlimit:10;stroke-opacity:1" />
<line
   stroke-miterlimit="10"
   x1="267.20499"
   y1="16.278648"
   x2="256.76627"
   y2="44.957188"
   id="line108"
   style="fill:#0094ce;fill-opacity:1;stroke:#0094ce;stroke-width:2.60512686;stroke-miterlimit:10;stroke-opacity:1" />
<line
   stroke-miterlimit="10"
   x1="234.28662"
   y1="7.4576898"
   x2="228.98648"
   y2="37.513035"
   id="line110"
   style="fill:#0094ce;fill-opacity:1;stroke:#0094ce;stroke-width:2.60512686;stroke-miterlimit:10;stroke-opacity:1" />
<line
   stroke-miterlimit="10"
   x1="200.33531"
   y1="4.4865451"
   x2="200.334"
   y2="35.006908"
   id="line112"
   style="fill:#0094ce;fill-opacity:1;stroke:#0094ce;stroke-width:2.60512686;stroke-miterlimit:10;stroke-opacity:1" />
<line
   stroke-miterlimit="10"
   x1="166.38528"
   y1="7.456388"
   x2="171.68413"
   y2="37.513035"
   id="line114"
   style="fill:#0094ce;fill-opacity:1;stroke:#0094ce;stroke-width:2.60512686;stroke-miterlimit:10;stroke-opacity:1" />
<line
   stroke-miterlimit="10"
   x1="133.4669"
   y1="16.277346"
   x2="143.90434"
   y2="44.957188"
   id="line116"
   style="fill:#0094ce;fill-opacity:1;stroke:#0094ce;stroke-width:2.60512686;stroke-miterlimit:10;stroke-opacity:1" />
<line
   stroke-miterlimit="10"
   x1="102.57923"
   y1="30.679794"
   x2="117.83877"
   y2="57.111408"
   id="line118"
   style="fill:#0094ce;fill-opacity:1;stroke:#0094ce;stroke-width:2.60512686;stroke-miterlimit:10;stroke-opacity:1" />
<line
   stroke-miterlimit="10"
   x1="74.661385"
   y1="50.227356"
   x2="94.280594"
   y2="73.607071"
   id="line120"
   style="fill:#0094ce;fill-opacity:1;stroke:#0094ce;stroke-width:2.60512686;stroke-miterlimit:10;stroke-opacity:1" />
<line
   stroke-miterlimit="10"
   x1="50.562656"
   y1="74.324783"
   x2="73.943672"
   y2="93.943993"
   id="line122"
   style="fill:#0094ce;fill-opacity:1;stroke:#0094ce;stroke-width:2.60512686;stroke-miterlimit:10;stroke-opacity:1" />
<line
   stroke-miterlimit="10"
   x1="31.015093"
   y1="102.24132"
   x2="57.448009"
   y2="117.50214"
   id="line124"
   style="fill:#0094ce;fill-opacity:1;stroke:#0094ce;stroke-width:2.60512686;stroke-miterlimit:10;stroke-opacity:1" />
<line
   stroke-miterlimit="10"
   x1="16.612646"
   y1="133.12901"
   x2="45.293789"
   y2="143.56775"
   id="line126"
   style="fill:#0094ce;fill-opacity:1;stroke:#0094ce;stroke-width:2.60512686;stroke-miterlimit:10;stroke-opacity:1" />
<line
   stroke-miterlimit="10"
   x1="7.7903852"
   y1="166.04739"
   x2="37.849644"
   y2="171.34622"
   id="line128"
   style="fill:#0094ce;fill-opacity:1;stroke:#0094ce;stroke-width:2.60512686;stroke-miterlimit:10;stroke-opacity:1" />
<line
   stroke-miterlimit="10"
   x1="4.8205423"
   y1="199.99869"
   x2="35.342205"
   y2="199.99741"
   id="line130"
   style="fill:#0094ce;fill-opacity:1;stroke:#0094ce;stroke-width:2.60512686;stroke-miterlimit:10;stroke-opacity:1" />
<line
   stroke-miterlimit="10"
   x1="7.7903852"
   y1="233.94872"
   x2="37.848343"
   y2="228.64728"
   id="line132"
   style="fill:#0094ce;fill-opacity:1;stroke:#0094ce;stroke-width:2.60512686;stroke-miterlimit:10;stroke-opacity:1" />
<line
   stroke-miterlimit="10"
   x1="16.611343"
   y1="266.8671"
   x2="45.292488"
   y2="256.42706"
   id="line134"
   style="fill:#0094ce;fill-opacity:1;stroke:#0094ce;stroke-width:2.60512686;stroke-miterlimit:10;stroke-opacity:1" />
<line
   stroke-miterlimit="10"
   x1="31.012489"
   y1="297.75479"
   x2="57.446709"
   y2="282.49265"
   id="line136"
   style="fill:#0094ce;fill-opacity:1;stroke:#0094ce;stroke-width:2.60512686;stroke-miterlimit:10;stroke-opacity:1" />
<line
   stroke-miterlimit="10"
   x1="50.560055"
   y1="325.67261"
   x2="73.942375"
   y2="306.05081"
   id="line138"
   style="fill:#0094ce;fill-opacity:1;stroke:#0094ce;stroke-width:2.60512686;stroke-miterlimit:10;stroke-opacity:1" />
<line
   stroke-miterlimit="10"
   x1="74.658775"
   y1="349.77133"
   x2="94.279297"
   y2="326.38773"
   id="line140"
   style="fill:#0094ce;fill-opacity:1;stroke:#0094ce;stroke-width:2.60512686;stroke-miterlimit:10;stroke-opacity:1" />
<line
   stroke-miterlimit="10"
   x1="102.57661"
   y1="369.31894"
   x2="117.83746"
   y2="342.8847"
   id="line142"
   style="fill:#0094ce;fill-opacity:1;stroke:#0094ce;stroke-width:2.60512686;stroke-miterlimit:10;stroke-opacity:1" />
<line
   stroke-miterlimit="10"
   x1="133.46429"
   y1="383.72266"
   x2="143.90173"
   y2="355.03891"
   id="line144"
   style="fill:#0094ce;fill-opacity:1;stroke:#0094ce;stroke-width:2.60512686;stroke-miterlimit:10;stroke-opacity:1" />
<line
   stroke-miterlimit="10"
   x1="166.38269"
   y1="392.54364"
   x2="171.68152"
   y2="362.48306"
   id="line146"
   style="fill:#0094ce;fill-opacity:1;stroke:#0094ce;stroke-width:2.60512686;stroke-miterlimit:10;stroke-opacity:1" />
<g
   id="g150"
   style="fill:#0094ce;fill-opacity:1;stroke:#0094ce;stroke-opacity:1"
   transform="matrix(1.3025634,0,0,1.3025634,-60.613731,-60.512672)">
	<path
   stroke-miterlimit="10"
   d="M 192.637,101.333 V 79.786 h 0.469 l 14.341,16.518 V 79.786 h 2.124 v 21.548 h -0.483 L 194.864,85.018 v 16.316 h -2.227 z"
   id="path148"
   style="fill:#0094ce;fill-opacity:1;stroke:#0094ce;stroke-miterlimit:10;stroke-opacity:1"
   inkscape:connector-curvature="0" />
</g>
<g
   id="g156"
   style="fill:#0094ce;fill-opacity:1;stroke:#0094ce;stroke-opacity:1"
   transform="matrix(1.3025634,0,0,1.3025634,-60.613731,-60.512672)">
	<path
   stroke-miterlimit="10"
   d="m 135.018,109.119 -1.585,0.916 c -0.452,-1.449 -0.468,-2.755 -0.05,-3.919 0.419,-1.162 1.186,-2.064 2.299,-2.708 0.811,-0.468 1.674,-0.719 2.588,-0.754 0.915,-0.035 1.746,0.15 2.492,0.556 0.746,0.406 1.316,0.95 1.711,1.634 0.773,1.339 0.72,2.784 -0.161,4.336 0.923,-0.128 1.792,-0.038 2.608,0.27 1.153,0.434 2.024,1.162 2.614,2.184 0.509,0.882 0.762,1.856 0.759,2.925 -0.004,1.068 -0.281,2.053 -0.832,2.954 -0.552,0.9 -1.324,1.638 -2.317,2.211 -1.34,0.773 -2.68,1.032 -4.02,0.778 -1.341,-0.256 -2.579,-1.051 -3.718,-2.387 l 1.522,-0.879 c 0.851,0.854 1.655,1.362 2.416,1.523 0.971,0.201 1.953,0.014 2.946,-0.56 1.128,-0.651 1.838,-1.512 2.131,-2.584 0.293,-1.07 0.178,-2.061 -0.347,-2.97 -0.351,-0.606 -0.849,-1.075 -1.496,-1.406 -0.647,-0.331 -1.335,-0.465 -2.063,-0.401 -0.729,0.064 -1.715,0.412 -2.957,1.044 l -0.823,-1.427 c 0.712,-0.411 1.287,-0.91 1.729,-1.498 0.44,-0.588 0.681,-1.152 0.721,-1.692 0.041,-0.54 -0.07,-1.039 -0.335,-1.498 -0.391,-0.676 -0.998,-1.105 -1.822,-1.288 -0.824,-0.182 -1.648,-0.034 -2.473,0.441 -0.67,0.387 -1.139,0.909 -1.408,1.566 -0.268,0.658 -0.311,1.535 -0.129,2.633 z"
   id="path152"
   style="fill:#0094ce;fill-opacity:1;stroke:#0094ce;stroke-miterlimit:10;stroke-opacity:1"
   inkscape:connector-curvature="0" />
	<path
   stroke-miterlimit="10"
   d="m 147.018,102.192 -1.586,0.915 c -0.452,-1.449 -0.469,-2.755 -0.05,-3.918 0.419,-1.163 1.185,-2.065 2.298,-2.708 0.811,-0.468 1.674,-0.719 2.588,-0.754 0.916,-0.034 1.746,0.151 2.492,0.556 0.747,0.406 1.317,0.95 1.712,1.633 0.773,1.34 0.72,2.785 -0.161,4.336 0.922,-0.128 1.791,-0.038 2.608,0.27 1.153,0.434 2.024,1.162 2.614,2.184 0.509,0.881 0.762,1.856 0.758,2.924 -0.003,1.068 -0.28,2.053 -0.832,2.954 -0.551,0.9 -1.323,1.638 -2.317,2.212 -1.339,0.773 -2.679,1.032 -4.019,0.777 -1.342,-0.256 -2.58,-1.05 -3.718,-2.386 l 1.522,-0.879 c 0.85,0.854 1.654,1.362 2.416,1.523 0.971,0.201 1.953,0.015 2.947,-0.56 1.127,-0.65 1.838,-1.512 2.131,-2.583 0.292,-1.071 0.177,-2.061 -0.349,-2.97 -0.35,-0.606 -0.849,-1.075 -1.495,-1.406 -0.646,-0.331 -1.335,-0.465 -2.064,-0.401 -0.729,0.064 -1.714,0.412 -2.955,1.044 l -0.824,-1.427 c 0.711,-0.411 1.287,-0.91 1.729,-1.498 0.439,-0.588 0.681,-1.152 0.721,-1.692 0.041,-0.54 -0.071,-1.039 -0.336,-1.498 -0.391,-0.676 -0.998,-1.105 -1.821,-1.288 -0.824,-0.182 -1.648,-0.035 -2.474,0.441 -0.669,0.387 -1.138,0.909 -1.406,1.566 -0.27,0.657 -0.313,1.535 -0.129,2.633 z"
   id="path154"
   style="fill:#0094ce;fill-opacity:1;stroke:#0094ce;stroke-miterlimit:10;stroke-opacity:1"
   inkscape:connector-curvature="0" />
</g>
<g
   id="g162"
   style="fill:#0094ce;fill-opacity:1;stroke:#0094ce;stroke-opacity:1"
   transform="matrix(1.3025634,0,0,1.3025634,-60.613731,-60.512672)">
	<path
   stroke-miterlimit="10"
   d="m 98.427,152.854 -0.915,1.585 c -1.116,-1.029 -1.783,-2.152 -2.003,-3.369 -0.218,-1.216 -0.006,-2.381 0.637,-3.495 0.468,-0.81 1.09,-1.459 1.864,-1.947 0.775,-0.487 1.587,-0.742 2.436,-0.764 0.85,-0.022 1.615,0.165 2.299,0.559 1.34,0.773 2.016,2.052 2.029,3.835 0.734,-0.572 1.532,-0.928 2.394,-1.07 1.215,-0.2 2.334,-0.006 3.355,0.584 0.882,0.509 1.588,1.227 2.119,2.154 0.531,0.927 0.783,1.918 0.757,2.974 -0.027,1.056 -0.328,2.08 -0.901,3.074 -0.773,1.339 -1.805,2.233 -3.092,2.683 -1.29,0.45 -2.76,0.38 -4.413,-0.208 l 0.879,-1.522 c 1.163,0.314 2.114,0.352 2.854,0.111 0.941,-0.312 1.699,-0.965 2.273,-1.958 0.65,-1.127 0.835,-2.229 0.553,-3.303 -0.281,-1.074 -0.877,-1.875 -1.786,-2.399 -0.606,-0.35 -1.272,-0.507 -1.998,-0.47 -0.726,0.037 -1.388,0.265 -1.988,0.685 -0.599,0.42 -1.278,1.214 -2.038,2.382 l -1.427,-0.824 c 0.411,-0.712 0.66,-1.433 0.748,-2.162 0.087,-0.729 0.014,-1.338 -0.222,-1.826 -0.234,-0.488 -0.581,-0.864 -1.04,-1.129 -0.676,-0.391 -1.417,-0.458 -2.222,-0.205 -0.805,0.255 -1.444,0.794 -1.921,1.619 -0.387,0.67 -0.531,1.356 -0.436,2.06 0.097,0.706 0.498,1.488 1.205,2.346 z"
   id="path158"
   style="fill:#0094ce;fill-opacity:1;stroke:#0094ce;stroke-miterlimit:10;stroke-opacity:1"
   inkscape:connector-curvature="0" />
	<path
   stroke-miterlimit="10"
   d="m 108.273,145.444 c -2.051,-1.184 -3.509,-2.319 -4.376,-3.407 -0.866,-1.087 -1.355,-2.199 -1.471,-3.336 -0.113,-1.137 0.116,-2.203 0.69,-3.196 0.581,-1.008 1.399,-1.752 2.452,-2.235 1.054,-0.481 2.299,-0.625 3.736,-0.429 1.438,0.196 3.137,0.859 5.096,1.991 1.952,1.127 3.371,2.259 4.256,3.395 0.886,1.136 1.385,2.286 1.497,3.451 0.112,1.165 -0.122,2.25 -0.704,3.258 -0.574,0.993 -1.377,1.724 -2.407,2.19 -1.03,0.467 -2.24,0.598 -3.63,0.392 -1.39,-0.206 -3.102,-0.898 -5.139,-2.074 z m 0.875,-1.454 c 1.757,1.014 3.175,1.624 4.255,1.83 1.08,0.205 2.03,0.136 2.85,-0.209 0.82,-0.344 1.427,-0.858 1.821,-1.542 0.398,-0.691 0.544,-1.467 0.435,-2.329 -0.108,-0.861 -0.529,-1.71 -1.26,-2.546 -0.884,-1.027 -2.104,-1.99 -3.663,-2.89 -1.566,-0.904 -2.948,-1.471 -4.146,-1.703 -1.197,-0.23 -2.203,-0.175 -3.017,0.168 -0.814,0.342 -1.417,0.852 -1.808,1.529 -0.398,0.691 -0.542,1.473 -0.43,2.345 0.112,0.874 0.526,1.728 1.243,2.564 0.717,0.837 1.957,1.765 3.72,2.783 z"
   id="path160"
   style="fill:#0094ce;fill-opacity:1;stroke:#0094ce;stroke-miterlimit:10;stroke-opacity:1"
   inkscape:connector-curvature="0" />
</g>
<g
   id="g168"
   style="fill:#0094ce;fill-opacity:1;stroke:#0094ce;stroke-opacity:1"
   transform="matrix(1.3025634,0,0,1.3025634,-60.613731,-60.512672)">
	<path
   stroke-miterlimit="10"
   d="m 109.917,264.448 0.86,1.49 c -1.558,0.843 -3.112,1.057 -4.665,0.643 -1.552,-0.414 -2.745,-1.344 -3.579,-2.789 -0.826,-1.431 -1.033,-2.855 -0.619,-4.272 0.412,-1.418 1.246,-2.489 2.501,-3.214 0.882,-0.509 1.83,-0.775 2.846,-0.799 1.016,-0.025 2.534,0.191 4.554,0.646 l 6.408,1.466 -4.143,-7.175 1.502,-0.866 6.097,10.561 -9.851,-2.234 c -1.987,-0.459 -3.397,-0.69 -4.23,-0.693 -0.834,-0.002 -1.597,0.196 -2.288,0.596 -0.874,0.504 -1.439,1.265 -1.694,2.281 -0.255,1.016 -0.109,1.997 0.436,2.941 0.574,0.993 1.383,1.628 2.425,1.905 1.043,0.274 2.19,0.112 3.44,-0.487 z"
   id="path164"
   style="fill:#0094ce;fill-opacity:1;stroke:#0094ce;stroke-miterlimit:10;stroke-opacity:1"
   inkscape:connector-curvature="0" />
	<path
   stroke-miterlimit="10"
   d="m 93.859,248.767 -0.182,-0.315 10.846,-6.262 -1.086,-1.882 1.48,-0.854 1.086,1.882 3.616,-2.087 0.891,1.543 -3.616,2.088 4.297,7.441 z m 11.556,-5.034 -6.531,3.771 9.191,0.836 z"
   id="path166"
   style="fill:#0094ce;fill-opacity:1;stroke:#0094ce;stroke-miterlimit:10;stroke-opacity:1"
   inkscape:connector-curvature="0" />
</g>
<g
   id="g174"
   style="fill:#0094ce;fill-opacity:1;stroke:#0094ce;stroke-opacity:1"
   transform="matrix(1.3025634,0,0,1.3025634,-60.613731,-60.512672)">
	<path
   stroke-miterlimit="10"
   d="m 153.804,300.688 1.491,0.86 c -0.928,1.509 -2.167,2.472 -3.72,2.889 -1.551,0.417 -3.049,0.208 -4.494,-0.626 -1.431,-0.826 -2.322,-1.955 -2.673,-3.391 -0.352,-1.434 -0.165,-2.778 0.56,-4.033 0.509,-0.882 1.198,-1.586 2.065,-2.115 0.867,-0.529 2.29,-1.102 4.267,-1.718 l 6.282,-1.935 -7.174,-4.142 0.867,-1.502 10.561,6.098 -9.648,2.991 c -1.951,0.595 -3.288,1.1 -4.011,1.514 -0.723,0.415 -1.284,0.969 -1.683,1.66 -0.505,0.873 -0.614,1.815 -0.326,2.823 0.287,1.007 0.903,1.784 1.847,2.329 0.994,0.573 2.012,0.719 3.053,0.438 1.041,-0.282 1.953,-0.995 2.736,-2.14 z"
   id="path170"
   style="fill:#0094ce;fill-opacity:1;stroke:#0094ce;stroke-miterlimit:10;stroke-opacity:1"
   inkscape:connector-curvature="0" />
	<path
   stroke-miterlimit="10"
   d="m 137.497,297.756 -3.055,-1.764 8.978,-15.551 1.543,0.891 -8.1,14.029 2.442,1.409 z"
   id="path172"
   style="fill:#0094ce;fill-opacity:1;stroke:#0094ce;stroke-miterlimit:10;stroke-opacity:1"
   inkscape:connector-curvature="0" />
</g>
<g
   id="g180"
   style="fill:#0094ce;fill-opacity:1;stroke:#0094ce;stroke-opacity:1"
   transform="matrix(1.3025634,0,0,1.3025634,-60.613731,-60.512672)">
	<path
   stroke-miterlimit="10"
   d="m 265.364,296.643 -3.056,1.764 -8.979,-15.551 1.544,-0.892 8.099,14.029 2.442,-1.41 z"
   id="path176"
   style="fill:#0094ce;fill-opacity:1;stroke:#0094ce;stroke-miterlimit:10;stroke-opacity:1"
   inkscape:connector-curvature="0" />
	<path
   stroke-miterlimit="10"
   d="m 248.674,306.278 -0.854,-1.479 5.525,-3.19 -1.67,-4.689 c -0.562,0.588 -1.112,1.038 -1.655,1.352 -1.415,0.817 -2.855,1.017 -4.321,0.6 -1.466,-0.418 -2.627,-1.366 -3.481,-2.847 -0.59,-1.021 -0.895,-2.096 -0.915,-3.221 -0.021,-1.126 0.242,-2.148 0.787,-3.069 0.544,-0.921 1.345,-1.686 2.402,-2.296 1.262,-0.729 2.548,-0.957 3.86,-0.686 1.313,0.272 2.408,0.971 3.285,2.1 l -1.597,0.922 c -0.466,-0.53 -0.949,-0.899 -1.45,-1.108 -0.501,-0.209 -1.055,-0.291 -1.664,-0.245 -0.607,0.046 -1.172,0.219 -1.693,0.52 -1.021,0.59 -1.676,1.484 -1.963,2.681 -0.285,1.198 -0.093,2.376 0.578,3.538 0.604,1.048 1.428,1.709 2.468,1.981 1.041,0.272 2.114,0.089 3.221,-0.55 0.916,-0.529 1.865,-1.449 2.848,-2.758 l 3.024,8.558 z"
   id="path178"
   style="fill:#0094ce;fill-opacity:1;stroke:#0094ce;stroke-miterlimit:10;stroke-opacity:1"
   inkscape:connector-curvature="0" />
</g>
<g
   id="g186"
   style="fill:#0094ce;fill-opacity:1;stroke:#0094ce;stroke-opacity:1"
   transform="matrix(1.3025634,0,0,1.3025634,-60.613731,-60.512672)">
	<path
   stroke-miterlimit="10"
   d="m 305.018,250.334 -1.765,3.056 -15.551,-8.979 0.892,-1.543 14.028,8.099 1.41,-2.442 z"
   id="path182"
   style="fill:#0094ce;fill-opacity:1;stroke:#0094ce;stroke-miterlimit:10;stroke-opacity:1"
   inkscape:connector-curvature="0" />
	<path
   stroke-miterlimit="10"
   d="m 295.219,256.076 0.86,-1.49 c 1.509,0.928 2.472,2.167 2.889,3.719 0.417,1.551 0.209,3.05 -0.626,4.495 -0.825,1.431 -1.955,2.322 -3.391,2.672 -1.434,0.352 -2.778,0.165 -4.033,-0.56 -0.881,-0.509 -1.586,-1.197 -2.115,-2.064 -0.528,-0.868 -1.102,-2.29 -1.718,-4.267 l -1.935,-6.282 -4.142,7.174 -1.501,-0.867 6.097,-10.561 2.991,9.648 c 0.595,1.95 1.1,3.287 1.514,4.011 0.416,0.724 0.969,1.284 1.66,1.684 0.874,0.505 1.815,0.614 2.823,0.326 1.008,-0.287 1.784,-0.903 2.329,-1.848 0.574,-0.993 0.719,-2.012 0.438,-3.053 -0.281,-1.042 -0.995,-1.954 -2.14,-2.737 z"
   id="path184"
   style="fill:#0094ce;fill-opacity:1;stroke:#0094ce;stroke-miterlimit:10;stroke-opacity:1"
   inkscape:connector-curvature="0" />
</g>
<g
   id="g190"
   style="fill:#0094ce;fill-opacity:1;stroke:#0094ce;stroke-opacity:1"
   transform="matrix(1.3025634,0,0,1.3025634,-60.613731,-60.512672)">
	<path
   stroke-miterlimit="10"
   d="m 302.287,142.898 -0.097,1.762 -8.791,-0.532 c 0.516,0.455 0.916,0.929 1.201,1.423 0.713,1.235 0.873,2.541 0.479,3.917 -0.395,1.376 -1.244,2.44 -2.547,3.193 -0.896,0.517 -1.824,0.775 -2.787,0.776 -0.963,10e-4 -1.879,-0.259 -2.747,-0.778 -0.868,-0.519 -1.557,-1.22 -2.066,-2.102 -0.493,-0.854 -0.744,-1.765 -0.753,-2.733 -0.01,-0.968 0.239,-1.876 0.746,-2.724 0.507,-0.848 1.187,-1.518 2.039,-2.01 0.635,-0.366 1.376,-0.623 2.227,-0.77 0.85,-0.147 1.96,-0.174 3.33,-0.08 z m -9.264,3.072 c -0.522,-0.903 -1.286,-1.491 -2.292,-1.762 -1.007,-0.27 -1.964,-0.143 -2.874,0.383 -0.902,0.521 -1.488,1.284 -1.757,2.291 -0.269,1.008 -0.142,1.963 0.379,2.866 0.521,0.903 1.286,1.491 2.292,1.762 1.007,0.271 1.961,0.146 2.863,-0.376 0.909,-0.524 1.498,-1.291 1.767,-2.298 0.269,-1.007 0.144,-1.963 -0.378,-2.866 z"
   id="path188"
   style="fill:#0094ce;fill-opacity:1;stroke:#0094ce;stroke-miterlimit:10;stroke-opacity:1"
   inkscape:connector-curvature="0" />
</g>
<g
   id="g194"
   style="fill:#0094ce;fill-opacity:1;stroke:#0094ce;stroke-opacity:1"
   transform="matrix(1.3025634,0,0,1.3025634,-60.613731,-60.512672)">
	<path
   stroke-miterlimit="10"
   d="m 252.478,100.756 -1.585,-0.915 c 1.029,-1.116 2.152,-1.783 3.369,-2.003 1.216,-0.218 2.381,-0.006 3.495,0.637 0.81,0.468 1.459,1.09 1.947,1.864 0.487,0.775 0.742,1.587 0.764,2.436 0.022,0.85 -0.165,1.615 -0.559,2.299 -0.773,1.34 -2.052,2.016 -3.835,2.029 0.572,0.734 0.928,1.532 1.07,2.394 0.2,1.215 0.006,2.334 -0.584,3.355 -0.509,0.882 -1.227,1.588 -2.154,2.119 -0.927,0.531 -1.918,0.783 -2.974,0.757 -1.056,-0.027 -2.08,-0.328 -3.074,-0.901 -1.339,-0.773 -2.233,-1.805 -2.683,-3.092 -0.45,-1.29 -0.38,-2.76 0.208,-4.413 l 1.522,0.879 c -0.314,1.163 -0.352,2.114 -0.111,2.854 0.312,0.941 0.965,1.699 1.958,2.273 1.127,0.65 2.229,0.835 3.303,0.553 1.074,-0.281 1.875,-0.877 2.399,-1.786 0.35,-0.606 0.507,-1.272 0.47,-1.998 -0.037,-0.726 -0.265,-1.388 -0.685,-1.988 -0.42,-0.599 -1.214,-1.278 -2.382,-2.038 l 0.824,-1.427 c 0.712,0.411 1.433,0.66 2.162,0.748 0.729,0.087 1.338,0.014 1.826,-0.222 0.488,-0.234 0.864,-0.581 1.129,-1.04 0.391,-0.676 0.458,-1.417 0.205,-2.222 -0.255,-0.805 -0.794,-1.444 -1.619,-1.921 -0.67,-0.387 -1.356,-0.531 -2.06,-0.436 -0.706,0.096 -1.488,0.498 -2.346,1.205 z"
   id="path192"
   style="fill:#0094ce;fill-opacity:1;stroke:#0094ce;stroke-miterlimit:10;stroke-opacity:1"
   inkscape:connector-curvature="0" />
</g>
<g
   id="g198"
   style="fill:#0094ce;fill-opacity:1;stroke:#0094ce;stroke-opacity:1"
   transform="matrix(1.3025634,0,0,1.3025634,-60.613731,-60.512672)">
	<path
   stroke-miterlimit="10"
   d="m 80.119,212.927 v -2.212 l 15.527,-4.402 -15.527,-6.177 v -0.447 l 15.527,-6.105 -15.527,-4.477 v -2.195 l 21.548,6.191 v 0.4 l -16.304,6.394 16.304,6.519 v 0.402 z"
   id="path196"
   style="fill:#0094ce;fill-opacity:1;stroke:#0094ce;stroke-miterlimit:10;stroke-opacity:1"
   inkscape:connector-curvature="0" />
</g>
<g
   id="g202"
   style="fill:#0094ce;fill-opacity:1;stroke:#0094ce;stroke-opacity:1"
   transform="matrix(1.3025634,0,0,1.3025634,-60.613731,-60.512672)">
	<path
   stroke-miterlimit="10"
   d="m 206.271,302.679 -1.831,1.099 c -1.289,-2.373 -2.778,-3.56 -4.468,-3.56 -0.723,0 -1.401,0.168 -2.036,0.505 -0.635,0.337 -1.118,0.789 -1.45,1.355 -0.332,0.566 -0.498,1.167 -0.498,1.802 0,0.723 0.244,1.431 0.732,2.124 0.674,0.957 1.904,2.109 3.691,3.457 1.797,1.357 2.915,2.339 3.354,2.944 0.762,1.016 1.143,2.114 1.143,3.296 0,0.938 -0.225,1.792 -0.674,2.563 -0.449,0.771 -1.082,1.379 -1.897,1.824 -0.815,0.445 -1.702,0.667 -2.659,0.667 -1.016,0 -1.965,-0.251 -2.849,-0.754 -0.884,-0.503 -1.819,-1.428 -2.805,-2.776 l 1.758,-1.333 c 0.811,1.074 1.501,1.782 2.073,2.124 0.572,0.342 1.194,0.513 1.868,0.513 0.869,0 1.58,-0.264 2.131,-0.791 0.551,-0.527 0.828,-1.177 0.828,-1.948 0,-0.469 -0.098,-0.923 -0.293,-1.362 -0.195,-0.439 -0.552,-0.918 -1.069,-1.436 -0.283,-0.273 -1.211,-0.991 -2.783,-2.153 -1.865,-1.377 -3.145,-2.603 -3.838,-3.677 -0.693,-1.074 -1.04,-2.153 -1.04,-3.237 0,-1.563 0.593,-2.92 1.78,-4.072 1.187,-1.152 2.629,-1.729 4.329,-1.729 1.309,0 2.495,0.349 3.56,1.047 1.065,0.698 2.045,1.868 2.943,3.508 z"
   id="path200"
   style="fill:#0094ce;fill-opacity:1;stroke:#0094ce;stroke-miterlimit:10;stroke-opacity:1"
   inkscape:connector-curvature="0" />
</g>
<g
   id="g206"
   style="fill:#0094ce;fill-opacity:1;stroke:#0094ce;stroke-opacity:1"
   transform="matrix(1.3025634,0,0,1.3025634,-60.613731,-60.512672)">
	<path
   stroke-miterlimit="10"
   d="m 320.547,193.303 v 12.349 h -2.109 v -10.195 h -6.753 v 10.107 h -2.109 v -10.107 h -8.467 v 10.107 H 299 v -12.261 z"
   id="path204"
   style="fill:#0094ce;fill-opacity:1;stroke:#0094ce;stroke-miterlimit:10;stroke-opacity:1"
   inkscape:connector-curvature="0" />
</g>
</svg>