<?xml version="1.0" encoding="UTF-8" standalone="no"?>
<svg
   xmlns:dc="http://purl.org/dc/elements/1.1/"
   xmlns:cc="http://creativecommons.org/ns#"
   xmlns:rdf="http://www.w3.org/1999/02/22-rdf-syntax-ns#"
   xmlns:svg="http://www.w3.org/2000/svg"
   xmlns="http://www.w3.org/2000/svg"
   xmlns:sodipodi="http://sodipodi.sourceforge.net/DTD/sodipodi-0.dtd"
   xmlns:inkscape="http://www.inkscape.org/namespaces/inkscape"
   version="1.1"
   x="0px"
   y="0px"
   width="400.667px"
   height="400.666px"
   viewBox="0 0 400.667 400.666"
   enable-background="new 0 0 400.667 400.666"
   xml:space="preserve"
   id="svg92"
   sodipodi:docname="horizon_ball.svg"
   inkscape:version="0.92.5 (2060ec1f9f, 2020-04-08)"><metadata
   id="metadata98"><rdf:RDF><cc:Work
       rdf:about=""><dc:format>image/svg+xml</dc:format><dc:type
         rdf:resource="http://purl.org/dc/dcmitype/StillImage" /></cc:Work></rdf:RDF></metadata><defs
   id="defs96" /><sodipodi:namedview
   pagecolor="#ffffff"
   bordercolor="#666666"
   borderopacity="1"
   objecttolerance="10"
   gridtolerance="10"
   guidetolerance="10"
   inkscape:pageopacity="0"
   inkscape:pageshadow="2"
   inkscape:window-width="2488"
   inkscape:window-height="1376"
   id="namedview94"
   showgrid="false"
   showguides="true"
   inkscape:guide-bbox="true"
   inkscape:zoom="2.3560772"
   inkscape:cx="210.05776"
   inkscape:cy="225.01915"
   inkscape:window-x="1672"
   inkscape:window-y="27"
   inkscape:window-maximized="1"
   inkscape:current-layer="layer1"><sodipodi:guide
     position="174.23029,233.54499"
     orientation="1,0"
     id="guide946"
     inkscape:locked="false" /><sodipodi:guide
     position="225.82559,226.99278"
     orientation="1,0"
     id="guide948"
     inkscape:locked="false" /><sodipodi:guide
     position="164.25608,242.9356"
     orientation="1,0"
     id="guide950"
     inkscape:locked="false" /><sodipodi:guide
     position="235.72021,247.17994"
     orientation="1,0"
     id="guide954"
     inkscape:locked="false" /></sodipodi:namedview>
<filter
   filterUnits="objectBoundingBox"
   id="AI_Shadow_1">
	<feGaussianBlur
   stdDeviation="5"
   result="blur"
   in="SourceAlpha"
   id="feGaussianBlur2" />
	<feOffset
   dy="0"
   dx="0"
   result="offsetBlurredAlpha"
   in="blur"
   id="feOffset4" />
	<feMerge
   id="feMerge10">
		<feMergeNode
   in="offsetBlurredAlpha"
   id="feMergeNode6" />
		<feMergeNode
   in="SourceGraphic"
   id="feMergeNode8" />
	</feMerge>
</filter>
	
	
	
		
	
		
	
	
		
	
		
	
		
	
		
	
		
	
	
	
	
	
	
	
	

<g
   inkscape:groupmode="layer"
   id="layer1"
   inkscape:label="Layer 1"
   style="display:inline"><path
     style="fill:none;stroke:#ffffff;stroke-width:2;stroke-miterlimit:10"
     d="M 99.667,200.457 H 301.66699"
     id="line26" /><path
     style="fill:none;stroke:#0094ce;stroke-width:2;stroke-miterlimit:10;stroke-opacity:1"
     d="m 187.979,187.37399 h 25"
     id="line28" /><path
     style="fill:none;stroke:#0094ce;stroke-width:2;stroke-miterlimit:10;stroke-opacity:1"
     d="m 188.16701,213.49899 h 25"
     id="line30" /><path
     style="fill:none;stroke:#0094ce;stroke-width:2;stroke-miterlimit:10;stroke-opacity:1"
     d="m 188.026,241.42 h 25"
     id="line32" /><path
     style="fill:none;stroke:#0094ce;stroke-width:2;stroke-miterlimit:10;stroke-opacity:1"
     d="m 188.16701,159.37399 h 25"
     id="line34" /><path
     style="fill:none;stroke:#0094ce;stroke-width:2;stroke-miterlimit:10;stroke-opacity:1"
     d="m 180.04201,173.405 h 40"
     id="line36" /><path
     style="fill:none;stroke:#0094ce;stroke-width:2;stroke-miterlimit:10;stroke-opacity:1"
     d="m 180.04201,227.49899 h 40"
     id="line38" /><path
     style="fill:none;stroke:#0094ce;stroke-width:2;stroke-miterlimit:10;stroke-opacity:1"
     d="m 170.04201,255.332 h 60"
     id="line40" /><path
     style="fill:none;stroke:#0094ce;stroke-width:2;stroke-miterlimit:10;stroke-opacity:1"
     d="m 170.04201,145.33299 h 60"
     id="line42" /><path
     style="display:inline;fill:none;stroke:#0094ce;stroke-width:2;stroke-miterlimit:10;stroke-opacity:1"
     d="M 99.333,200.33299 H 301.33301"
     id="line26-0" /><g
     id="g1211"><g
       transform="translate(0,-3.2389363)"
       id="g1100"><path
         style="fill:none;stroke:#0094ce;stroke-width:2;stroke-miterlimit:10;stroke-opacity:1"
         d="m 187.979,134.53192 h 25"
         id="line1088" /><path
         style="fill:none;stroke:#0094ce;stroke-width:2;stroke-miterlimit:10;stroke-opacity:1"
         d="m 188.16701,106.53192 h 25"
         id="line1090" /><path
         style="fill:none;stroke:#0094ce;stroke-width:2;stroke-miterlimit:10;stroke-opacity:1"
         d="m 180.04201,120.56293 h 40"
         id="line1092" /><path
         style="fill:none;stroke:#0094ce;stroke-width:2;stroke-miterlimit:10;stroke-opacity:1"
         d="m 170.04201,92.490921 h 60"
         id="line1094" /></g></g><g
     id="g1255"
     transform="translate(0,-56.059)"><g
       id="g1221"
       transform="translate(0,-3.2389363)"><path
         style="fill:none;stroke:#0094ce;stroke-width:2;stroke-miterlimit:10;stroke-opacity:1"
         d="m 187.979,134.53192 h 25"
         id="line1213" /><path
         style="fill:none;stroke:#0094ce;stroke-width:2;stroke-miterlimit:10;stroke-opacity:1"
         d="m 188.16701,106.53192 h 25"
         id="line1215" /><path
         style="fill:none;stroke:#0094ce;stroke-width:2;stroke-miterlimit:10;stroke-opacity:1"
         d="m 180.04201,120.56293 h 40"
         id="line1217" /><path
         style="fill:none;stroke:#0094ce;stroke-width:2;stroke-miterlimit:10;stroke-opacity:1"
         d="m 170.04201,92.490921 h 60"
         id="line1219" /></g></g><g
     id="g1299"
     transform="rotate(180,200.5965,200.35203)"><g
       id="g1265"
       transform="translate(0,-3.2389363)"><path
         style="fill:none;stroke:#0094ce;stroke-width:2;stroke-miterlimit:10;stroke-opacity:1"
         d="m 187.979,134.53192 h 25"
         id="line1257" /><path
         style="fill:none;stroke:#0094ce;stroke-width:2;stroke-miterlimit:10;stroke-opacity:1"
         d="m 188.16701,106.53192 h 25"
         id="line1259" /><path
         style="fill:none;stroke:#0094ce;stroke-width:2;stroke-miterlimit:10;stroke-opacity:1"
         d="m 180.04201,120.56293 h 40"
         id="line1261" /><path
         style="fill:none;stroke:#0094ce;stroke-width:2;stroke-miterlimit:10;stroke-opacity:1"
         d="m 170.04201,92.490921 h 60"
         id="line1263" /></g></g><g
     transform="rotate(180,200.5965,228.38053)"
     id="g1393"><g
       transform="translate(0,-3.2389363)"
       id="g1359"><path
         style="fill:none;stroke:#0094ce;stroke-width:2;stroke-miterlimit:10;stroke-opacity:1"
         d="m 187.979,134.53192 h 25"
         id="line1351" /><path
         style="fill:none;stroke:#0094ce;stroke-width:2;stroke-miterlimit:10;stroke-opacity:1"
         d="m 188.16701,106.53192 h 25"
         id="line1353" /><path
         style="fill:none;stroke:#0094ce;stroke-width:2;stroke-miterlimit:10;stroke-opacity:1"
         d="m 180.04201,120.56293 h 40"
         id="line1355" /><path
         style="fill:none;stroke:#0094ce;stroke-width:2;stroke-miterlimit:10;stroke-opacity:1"
         d="m 170.04201,92.490921 h 60"
         id="line1357" /></g></g><g
     id="g928"
     style="font-style:normal;font-variant:normal;font-weight:normal;font-stretch:normal;font-size:13.33340263px;line-height:1.25;font-family:sans-serif;-inkscape-font-specification:'sans-serif, Normal';font-variant-ligatures:normal;font-variant-caps:normal;font-variant-numeric:normal;font-feature-settings:normal;text-align:start;letter-spacing:0px;word-spacing:0px;writing-mode:lr-tb;text-anchor:start;fill:#0094ce;fill-opacity:1;stroke:none"
     transform="matrix(1.481926,0,0,1.481926,-274.29151,-27.25367)"
     aria-label="10" /><g
     aria-label="10"
     transform="matrix(1.5260903,0,0,1.5260903,-120.27156,-90.386768)"
     style="font-style:normal;font-variant:normal;font-weight:normal;font-stretch:normal;font-size:13.33333302px;line-height:1.25;font-family:'DejaVu Sans';-inkscape-font-specification:'DejaVu Sans, Normal';font-variant-ligatures:normal;font-variant-caps:normal;font-variant-numeric:normal;font-feature-settings:normal;text-align:start;letter-spacing:0px;word-spacing:0px;writing-mode:lr-tb;text-anchor:start;fill:#0094ce;fill-opacity:1;stroke:none"
     id="flowRoot930"><path
       d="m 227.04427,176.36198 h 2.14844 v -7.41537 l -2.33724,0.46875 v -1.19791 l 2.32422,-0.46875 h 1.3151 v 8.61328 h 2.14844 v 1.10677 h -5.59896 z"
       style=""
       id="path1134" /><path
       d="m 238.11198,168.61458 q -1.01563,0 -1.52995,1.00261 -0.50781,0.99609 -0.50781,3.0013 0,1.9987 0.50781,3.0013 0.51432,0.9961 1.52995,0.9961 1.02213,0 1.52995,-0.9961 0.51432,-1.0026 0.51432,-3.0013 0,-2.00521 -0.51432,-3.0013 -0.50782,-1.00261 -1.52995,-1.00261 z m 0,-1.04166 q 1.63411,0 2.49349,1.29557 0.86588,1.28906 0.86588,3.75 0,2.45443 -0.86588,3.75 -0.85938,1.28906 -2.49349,1.28906 -1.63412,0 -2.5,-1.28906 -0.85938,-1.29557 -0.85938,-3.75 0,-2.46094 0.85938,-3.75 0.86588,-1.29557 2.5,-1.29557 z"
       style=""
       id="path1136" /></g><g
     aria-label="10"
     transform="matrix(1.5260903,0,0,1.5260903,-194.28386,-90.386768)"
     style="font-style:normal;font-variant:normal;font-weight:normal;font-stretch:normal;font-size:13.33333302px;line-height:1.25;font-family:'DejaVu Sans';-inkscape-font-specification:'DejaVu Sans, Normal';font-variant-ligatures:normal;font-variant-caps:normal;font-variant-numeric:normal;font-feature-settings:normal;text-align:start;letter-spacing:0px;word-spacing:0px;writing-mode:lr-tb;text-anchor:start;fill:#0094ce;fill-opacity:1;stroke:none"
     id="flowRoot944"><path
       d="m 227.04427,176.36198 h 2.14844 v -7.41537 l -2.33724,0.46875 v -1.19791 l 2.32422,-0.46875 h 1.3151 v 8.61328 h 2.14844 v 1.10677 h -5.59896 z"
       style=""
       id="path1139" /><path
       d="m 238.11198,168.61458 q -1.01563,0 -1.52995,1.00261 -0.50781,0.99609 -0.50781,3.0013 0,1.9987 0.50781,3.0013 0.51432,0.9961 1.52995,0.9961 1.02213,0 1.52995,-0.9961 0.51432,-1.0026 0.51432,-3.0013 0,-2.00521 -0.51432,-3.0013 -0.50782,-1.00261 -1.52995,-1.00261 z m 0,-1.04166 q 1.63411,0 2.49349,1.29557 0.86588,1.28906 0.86588,3.75 0,2.45443 -0.86588,3.75 -0.85938,1.28906 -2.49349,1.28906 -1.63412,0 -2.5,-1.28906 -0.85938,-1.29557 -0.85938,-3.75 0,-2.46094 0.85938,-3.75 0.86588,-1.29557 2.5,-1.29557 z"
       style=""
       id="path1141" /></g><g
     aria-label="20"
     transform="matrix(1.5260903,0,0,1.5260903,-204.47028,-118.61165)"
     style="font-style:normal;font-variant:normal;font-weight:normal;font-stretch:normal;font-size:13.33333302px;line-height:1.25;font-family:'DejaVu Sans';-inkscape-font-specification:'DejaVu Sans, Normal';font-variant-ligatures:normal;font-variant-caps:normal;font-variant-numeric:normal;font-feature-settings:normal;text-align:start;letter-spacing:0px;word-spacing:0px;writing-mode:lr-tb;text-anchor:start;fill:#0094ce;fill-opacity:1;stroke:none"
     id="flowRoot964"><path
       d="m 227.94922,176.36198 h 4.58984 v 1.10677 h -6.17187 v -1.10677 q 0.7487,-0.77474 2.03776,-2.07682 1.29557,-1.3086 1.6276,-1.6862 0.63151,-0.70964 0.87891,-1.19792 0.2539,-0.49479 0.2539,-0.97005 0,-0.77474 -0.54687,-1.26302 -0.54037,-0.48828 -1.41276,-0.48828 -0.61849,0 -1.30859,0.21484 -0.6836,0.21484 -1.46485,0.65104 v -1.32812 q 0.79427,-0.31901 1.48438,-0.48177 0.6901,-0.16276 1.26302,-0.16276 1.51041,0 2.40885,0.7552 0.89844,0.75521 0.89844,2.01823 0,0.59896 -0.22787,1.13933 -0.22135,0.53385 -0.8138,1.26302 -0.16276,0.1888 -1.03515,1.09375 -0.8724,0.89844 -2.46094,2.51953 z"
       style=""
       id="path1144" /><path
       d="m 238.11198,168.61458 q -1.01563,0 -1.52995,1.00261 -0.50781,0.99609 -0.50781,3.0013 0,1.9987 0.50781,3.0013 0.51432,0.9961 1.52995,0.9961 1.02213,0 1.52995,-0.9961 0.51432,-1.0026 0.51432,-3.0013 0,-2.00521 -0.51432,-3.0013 -0.50782,-1.00261 -1.52995,-1.00261 z m 0,-1.04166 q 1.63411,0 2.49349,1.29557 0.86588,1.28906 0.86588,3.75 0,2.45443 -0.86588,3.75 -0.85938,1.28906 -2.49349,1.28906 -1.63412,0 -2.5,-1.28906 -0.85938,-1.29557 -0.85938,-3.75 0,-2.46094 0.85938,-3.75 0.86588,-1.29557 2.5,-1.29557 z"
       style=""
       id="path1146" /></g><g
     aria-label="20"
     transform="matrix(1.5260903,0,0,1.5260903,-109.39699,-118.61165)"
     style="font-style:normal;font-variant:normal;font-weight:normal;font-stretch:normal;font-size:13.33333302px;line-height:1.25;font-family:'DejaVu Sans';-inkscape-font-specification:'DejaVu Sans, Normal';font-variant-ligatures:normal;font-variant-caps:normal;font-variant-numeric:normal;font-feature-settings:normal;text-align:start;letter-spacing:0px;word-spacing:0px;writing-mode:lr-tb;text-anchor:start;fill:#0094ce;fill-opacity:1;stroke:none"
     id="flowRoot972"><path
       d="m 227.94922,176.36198 h 4.58984 v 1.10677 h -6.17187 v -1.10677 q 0.7487,-0.77474 2.03776,-2.07682 1.29557,-1.3086 1.6276,-1.6862 0.63151,-0.70964 0.87891,-1.19792 0.2539,-0.49479 0.2539,-0.97005 0,-0.77474 -0.54687,-1.26302 -0.54037,-0.48828 -1.41276,-0.48828 -0.61849,0 -1.30859,0.21484 -0.6836,0.21484 -1.46485,0.65104 v -1.32812 q 0.79427,-0.31901 1.48438,-0.48177 0.6901,-0.16276 1.26302,-0.16276 1.51041,0 2.40885,0.7552 0.89844,0.75521 0.89844,2.01823 0,0.59896 -0.22787,1.13933 -0.22135,0.53385 -0.8138,1.26302 -0.16276,0.1888 -1.03515,1.09375 -0.8724,0.89844 -2.46094,2.51953 z"
       style=""
       id="path1149" /><path
       d="m 238.11198,168.61458 q -1.01563,0 -1.52995,1.00261 -0.50781,0.99609 -0.50781,3.0013 0,1.9987 0.50781,3.0013 0.51432,0.9961 1.52995,0.9961 1.02213,0 1.52995,-0.9961 0.51432,-1.0026 0.51432,-3.0013 0,-2.00521 -0.51432,-3.0013 -0.50782,-1.00261 -1.52995,-1.00261 z m 0,-1.04166 q 1.63411,0 2.49349,1.29557 0.86588,1.28906 0.86588,3.75 0,2.45443 -0.86588,3.75 -0.85938,1.28906 -2.49349,1.28906 -1.63412,0 -2.5,-1.28906 -0.85938,-1.29557 -0.85938,-3.75 0,-2.46094 0.85938,-3.75 0.86588,-1.29557 2.5,-1.29557 z"
       style=""
       id="path1151" /></g><g
     aria-label="30"
     transform="matrix(1.5260903,0,0,1.5260903,-120.27156,-146.19988)"
     style="font-style:normal;font-variant:normal;font-weight:normal;font-stretch:normal;font-size:13.33333302px;line-height:1.25;font-family:'DejaVu Sans';-inkscape-font-specification:'DejaVu Sans, Normal';font-variant-ligatures:normal;font-variant-caps:normal;font-variant-numeric:normal;font-feature-settings:normal;text-align:start;letter-spacing:0px;word-spacing:0px;writing-mode:lr-tb;text-anchor:start;fill:#0094ce;fill-opacity:1;stroke:none"
     id="flowRoot980"><path
       d="m 230.80078,172.22786 q 0.94401,0.20183 1.47136,0.83985 0.53385,0.63802 0.53385,1.57552 0,1.4388 -0.98958,2.22656 -0.98959,0.78776 -2.8125,0.78776 -0.61198,0 -1.26302,-0.1237 -0.64454,-0.11718 -1.33464,-0.35807 v -1.26953 q 0.54687,0.31901 1.19792,0.48177 0.65104,0.16276 1.36067,0.16276 1.23698,0 1.88151,-0.48828 0.65105,-0.48828 0.65105,-1.41927 0,-0.85938 -0.60547,-1.34115 -0.59896,-0.48828 -1.67318,-0.48828 h -1.13281 v -1.08073 h 1.18489 q 0.97006,0 1.48438,-0.38411 0.51432,-0.39063 0.51432,-1.11979 0,-0.7487 -0.53385,-1.14584 -0.52735,-0.40364 -1.51693,-0.40364 -0.54036,0 -1.15885,0.11718 -0.61849,0.11719 -1.36068,0.36459 v -1.17188 q 0.7487,-0.20833 1.39974,-0.3125 0.65755,-0.10416 1.23698,-0.10416 1.49739,0 2.36979,0.68359 0.87239,0.67708 0.87239,1.83594 0,0.80729 -0.46223,1.36719 -0.46224,0.55338 -1.31511,0.76822 z"
       style=""
       id="path1154" /><path
       d="m 238.11198,168.61458 q -1.01563,0 -1.52995,1.00261 -0.50781,0.99609 -0.50781,3.0013 0,1.9987 0.50781,3.0013 0.51432,0.9961 1.52995,0.9961 1.02213,0 1.52995,-0.9961 0.51432,-1.0026 0.51432,-3.0013 0,-2.00521 -0.51432,-3.0013 -0.50782,-1.00261 -1.52995,-1.00261 z m 0,-1.04166 q 1.63411,0 2.49349,1.29557 0.86588,1.28906 0.86588,3.75 0,2.45443 -0.86588,3.75 -0.85938,1.28906 -2.49349,1.28906 -1.63412,0 -2.5,-1.28906 -0.85938,-1.29557 -0.85938,-3.75 0,-2.46094 0.85938,-3.75 0.86588,-1.29557 2.5,-1.29557 z"
       style=""
       id="path1156" /></g><g
     aria-label="30"
     transform="matrix(1.5260903,0,0,1.5260903,-194.28386,-146.19988)"
     style="font-style:normal;font-variant:normal;font-weight:normal;font-stretch:normal;font-size:13.33333302px;line-height:1.25;font-family:'DejaVu Sans';-inkscape-font-specification:'DejaVu Sans, Normal';font-variant-ligatures:normal;font-variant-caps:normal;font-variant-numeric:normal;font-feature-settings:normal;text-align:start;letter-spacing:0px;word-spacing:0px;writing-mode:lr-tb;text-anchor:start;fill:#0094ce;fill-opacity:1;stroke:none"
     id="flowRoot988"><path
       d="m 230.80078,172.22786 q 0.94401,0.20183 1.47136,0.83985 0.53385,0.63802 0.53385,1.57552 0,1.4388 -0.98958,2.22656 -0.98959,0.78776 -2.8125,0.78776 -0.61198,0 -1.26302,-0.1237 -0.64454,-0.11718 -1.33464,-0.35807 v -1.26953 q 0.54687,0.31901 1.19792,0.48177 0.65104,0.16276 1.36067,0.16276 1.23698,0 1.88151,-0.48828 0.65105,-0.48828 0.65105,-1.41927 0,-0.85938 -0.60547,-1.34115 -0.59896,-0.48828 -1.67318,-0.48828 h -1.13281 v -1.08073 h 1.18489 q 0.97006,0 1.48438,-0.38411 0.51432,-0.39063 0.51432,-1.11979 0,-0.7487 -0.53385,-1.14584 -0.52735,-0.40364 -1.51693,-0.40364 -0.54036,0 -1.15885,0.11718 -0.61849,0.11719 -1.36068,0.36459 v -1.17188 q 0.7487,-0.20833 1.39974,-0.3125 0.65755,-0.10416 1.23698,-0.10416 1.49739,0 2.36979,0.68359 0.87239,0.67708 0.87239,1.83594 0,0.80729 -0.46223,1.36719 -0.46224,0.55338 -1.31511,0.76822 z"
       style=""
       id="path1159" /><path
       d="m 238.11198,168.61458 q -1.01563,0 -1.52995,1.00261 -0.50781,0.99609 -0.50781,3.0013 0,1.9987 0.50781,3.0013 0.51432,0.9961 1.52995,0.9961 1.02213,0 1.52995,-0.9961 0.51432,-1.0026 0.51432,-3.0013 0,-2.00521 -0.51432,-3.0013 -0.50782,-1.00261 -1.52995,-1.00261 z m 0,-1.04166 q 1.63411,0 2.49349,1.29557 0.86588,1.28906 0.86588,3.75 0,2.45443 -0.86588,3.75 -0.85938,1.28906 -2.49349,1.28906 -1.63412,0 -2.5,-1.28906 -0.85938,-1.29557 -0.85938,-3.75 0,-2.46094 0.85938,-3.75 0.86588,-1.29557 2.5,-1.29557 z"
       style=""
       id="path1161" /></g><g
     aria-label="40"
     transform="matrix(1.5260903,0,0,1.5260903,-204.47028,-174.63698)"
     style="font-style:normal;font-variant:normal;font-weight:normal;font-stretch:normal;font-size:13.33333302px;line-height:1.25;font-family:'DejaVu Sans';-inkscape-font-specification:'DejaVu Sans, Normal';font-variant-ligatures:normal;font-variant-caps:normal;font-variant-numeric:normal;font-feature-settings:normal;text-align:start;letter-spacing:0px;word-spacing:0px;writing-mode:lr-tb;text-anchor:start;fill:#0094ce;fill-opacity:1;stroke:none"
     id="flowRoot996"><path
       d="m 230.42969,168.89453 -3.32032,5.1888 h 3.32032 z m -0.34505,-1.14583 h 1.65364 v 6.33463 h 1.38672 v 1.09375 h -1.38672 v 2.29167 h -1.30859 v -2.29167 h -4.38802 v -1.26953 z"
       style=""
       id="path1164" /><path
       d="m 238.11198,168.61458 q -1.01563,0 -1.52995,1.00261 -0.50781,0.99609 -0.50781,3.0013 0,1.9987 0.50781,3.0013 0.51432,0.9961 1.52995,0.9961 1.02213,0 1.52995,-0.9961 0.51432,-1.0026 0.51432,-3.0013 0,-2.00521 -0.51432,-3.0013 -0.50782,-1.00261 -1.52995,-1.00261 z m 0,-1.04166 q 1.63411,0 2.49349,1.29557 0.86588,1.28906 0.86588,3.75 0,2.45443 -0.86588,3.75 -0.85938,1.28906 -2.49349,1.28906 -1.63412,0 -2.5,-1.28906 -0.85938,-1.29557 -0.85938,-3.75 0,-2.46094 0.85938,-3.75 0.86588,-1.29557 2.5,-1.29557 z"
       style=""
       id="path1166" /></g><g
     aria-label="40"
     transform="matrix(1.5260903,0,0,1.5260903,-109.39699,-174.63698)"
     style="font-style:normal;font-variant:normal;font-weight:normal;font-stretch:normal;font-size:13.33333302px;line-height:1.25;font-family:'DejaVu Sans';-inkscape-font-specification:'DejaVu Sans, Normal';font-variant-ligatures:normal;font-variant-caps:normal;font-variant-numeric:normal;font-feature-settings:normal;text-align:start;letter-spacing:0px;word-spacing:0px;writing-mode:lr-tb;text-anchor:start;fill:#0094ce;fill-opacity:1;stroke:none"
     id="flowRoot1004"><path
       d="m 230.42969,168.89453 -3.32032,5.1888 h 3.32032 z m -0.34505,-1.14583 h 1.65364 v 6.33463 h 1.38672 v 1.09375 h -1.38672 v 2.29167 h -1.30859 v -2.29167 h -4.38802 v -1.26953 z"
       style=""
       id="path1169" /><path
       d="m 238.11198,168.61458 q -1.01563,0 -1.52995,1.00261 -0.50781,0.99609 -0.50781,3.0013 0,1.9987 0.50781,3.0013 0.51432,0.9961 1.52995,0.9961 1.02213,0 1.52995,-0.9961 0.51432,-1.0026 0.51432,-3.0013 0,-2.00521 -0.51432,-3.0013 -0.50782,-1.00261 -1.52995,-1.00261 z m 0,-1.04166 q 1.63411,0 2.49349,1.29557 0.86588,1.28906 0.86588,3.75 0,2.45443 -0.86588,3.75 -0.85938,1.28906 -2.49349,1.28906 -1.63412,0 -2.5,-1.28906 -0.85938,-1.29557 -0.85938,-3.75 0,-2.46094 0.85938,-3.75 0.86588,-1.29557 2.5,-1.29557 z"
       style=""
       id="path1171" /></g><g
     aria-label="60"
     transform="matrix(1.5260903,0,0,1.5260903,-204.47028,-230.45009)"
     style="font-style:normal;font-variant:normal;font-weight:normal;font-stretch:normal;font-size:13.33333302px;line-height:1.25;font-family:'DejaVu Sans';-inkscape-font-specification:'DejaVu Sans, Normal';font-variant-ligatures:normal;font-variant-caps:normal;font-variant-numeric:normal;font-feature-settings:normal;text-align:start;letter-spacing:0px;word-spacing:0px;writing-mode:lr-tb;text-anchor:start;fill:#0094ce;fill-opacity:1;stroke:none"
     id="flowRoot1012"><path
       d="m 229.79167,172.08464 q -0.88542,0 -1.40625,0.60546 -0.51433,0.60547 -0.51433,1.66016 0,1.04818 0.51433,1.66016 0.52083,0.60547 1.40625,0.60547 0.88541,0 1.39974,-0.60547 0.52083,-0.61198 0.52083,-1.66016 0,-1.05469 -0.52083,-1.66016 -0.51433,-0.60546 -1.39974,-0.60546 z m 2.61067,-4.1211 v 1.19792 q -0.49479,-0.23438 -1.0026,-0.35807 -0.5013,-0.1237 -0.99609,-0.1237 -1.30209,0 -1.99219,0.8789 -0.6836,0.87891 -0.78125,2.65625 0.38411,-0.5664 0.96354,-0.86588 0.57943,-0.30599 1.27604,-0.30599 1.46485,0 2.3112,0.89193 0.85286,0.88541 0.85286,2.41536 0,1.4974 -0.88541,2.40234 -0.88542,0.90495 -2.35677,0.90495 -1.6862,0 -2.57813,-1.28906 -0.89193,-1.29557 -0.89193,-3.75 0,-2.30469 1.09375,-3.67188 1.09375,-1.37369 2.9362,-1.37369 0.49479,0 0.9961,0.0976 0.50781,0.0977 1.05468,0.29297 z"
       style=""
       id="path1174" /><path
       d="m 238.11198,168.61458 q -1.01563,0 -1.52995,1.00261 -0.50781,0.99609 -0.50781,3.0013 0,1.9987 0.50781,3.0013 0.51432,0.9961 1.52995,0.9961 1.02213,0 1.52995,-0.9961 0.51432,-1.0026 0.51432,-3.0013 0,-2.00521 -0.51432,-3.0013 -0.50782,-1.00261 -1.52995,-1.00261 z m 0,-1.04166 q 1.63411,0 2.49349,1.29557 0.86588,1.28906 0.86588,3.75 0,2.45443 -0.86588,3.75 -0.85938,1.28906 -2.49349,1.28906 -1.63412,0 -2.5,-1.28906 -0.85938,-1.29557 -0.85938,-3.75 0,-2.46094 0.85938,-3.75 0.86588,-1.29557 2.5,-1.29557 z"
       style=""
       id="path1176" /></g><g
     aria-label="60"
     transform="matrix(1.5260903,0,0,1.5260903,-109.39699,-230.45009)"
     style="font-style:normal;font-variant:normal;font-weight:normal;font-stretch:normal;font-size:13.33333302px;line-height:1.25;font-family:'DejaVu Sans';-inkscape-font-specification:'DejaVu Sans, Normal';font-variant-ligatures:normal;font-variant-caps:normal;font-variant-numeric:normal;font-feature-settings:normal;text-align:start;letter-spacing:0px;word-spacing:0px;writing-mode:lr-tb;text-anchor:start;fill:#0094ce;fill-opacity:1;stroke:none"
     id="flowRoot1020"><path
       d="m 229.79167,172.08464 q -0.88542,0 -1.40625,0.60546 -0.51433,0.60547 -0.51433,1.66016 0,1.04818 0.51433,1.66016 0.52083,0.60547 1.40625,0.60547 0.88541,0 1.39974,-0.60547 0.52083,-0.61198 0.52083,-1.66016 0,-1.05469 -0.52083,-1.66016 -0.51433,-0.60546 -1.39974,-0.60546 z m 2.61067,-4.1211 v 1.19792 q -0.49479,-0.23438 -1.0026,-0.35807 -0.5013,-0.1237 -0.99609,-0.1237 -1.30209,0 -1.99219,0.8789 -0.6836,0.87891 -0.78125,2.65625 0.38411,-0.5664 0.96354,-0.86588 0.57943,-0.30599 1.27604,-0.30599 1.46485,0 2.3112,0.89193 0.85286,0.88541 0.85286,2.41536 0,1.4974 -0.88541,2.40234 -0.88542,0.90495 -2.35677,0.90495 -1.6862,0 -2.57813,-1.28906 -0.89193,-1.29557 -0.89193,-3.75 0,-2.30469 1.09375,-3.67188 1.09375,-1.37369 2.9362,-1.37369 0.49479,0 0.9961,0.0976 0.50781,0.0977 1.05468,0.29297 z"
       style=""
       id="path1179" /><path
       d="m 238.11198,168.61458 q -1.01563,0 -1.52995,1.00261 -0.50781,0.99609 -0.50781,3.0013 0,1.9987 0.50781,3.0013 0.51432,0.9961 1.52995,0.9961 1.02213,0 1.52995,-0.9961 0.51432,-1.0026 0.51432,-3.0013 0,-2.00521 -0.51432,-3.0013 -0.50782,-1.00261 -1.52995,-1.00261 z m 0,-1.04166 q 1.63411,0 2.49349,1.29557 0.86588,1.28906 0.86588,3.75 0,2.45443 -0.86588,3.75 -0.85938,1.28906 -2.49349,1.28906 -1.63412,0 -2.5,-1.28906 -0.85938,-1.29557 -0.85938,-3.75 0,-2.46094 0.85938,-3.75 0.86588,-1.29557 2.5,-1.29557 z"
       style=""
       id="path1181" /></g><g
     aria-label="50"
     transform="matrix(1.5260903,0,0,1.5260903,-120.27156,-202.64964)"
     style="font-style:normal;font-variant:normal;font-weight:normal;font-stretch:normal;font-size:13.33333302px;line-height:1.25;font-family:'DejaVu Sans';-inkscape-font-specification:'DejaVu Sans, Normal';font-variant-ligatures:normal;font-variant-caps:normal;font-variant-numeric:normal;font-feature-settings:normal;text-align:start;letter-spacing:0px;word-spacing:0px;writing-mode:lr-tb;text-anchor:start;fill:#0094ce;fill-opacity:1;stroke:none"
     id="flowRoot1028"><path
       d="m 226.82943,167.7487 h 5.16276 v 1.10677 h -3.95834 v 2.38281 q 0.28646,-0.0977 0.57292,-0.14323 0.28646,-0.0521 0.57292,-0.0521 1.6276,0 2.57812,0.89193 0.95052,0.89192 0.95052,2.41536 0,1.56901 -0.97656,2.44141 -0.97656,0.86588 -2.75391,0.86588 -0.61197,0 -1.25,-0.10416 -0.63151,-0.10417 -1.30859,-0.3125 v -1.32162 q 0.58594,0.31901 1.21094,0.47526 0.625,0.15625 1.32161,0.15625 1.1263,0 1.78386,-0.59245 0.65755,-0.59244 0.65755,-1.60807 0,-1.01562 -0.65755,-1.60807 -0.65756,-0.59245 -1.78386,-0.59245 -0.52734,0 -1.05468,0.11719 -0.52084,0.11718 -1.06771,0.36458 z"
       style=""
       id="path1184" /><path
       d="m 238.11198,168.61458 q -1.01563,0 -1.52995,1.00261 -0.50781,0.99609 -0.50781,3.0013 0,1.9987 0.50781,3.0013 0.51432,0.9961 1.52995,0.9961 1.02213,0 1.52995,-0.9961 0.51432,-1.0026 0.51432,-3.0013 0,-2.00521 -0.51432,-3.0013 -0.50782,-1.00261 -1.52995,-1.00261 z m 0,-1.04166 q 1.63411,0 2.49349,1.29557 0.86588,1.28906 0.86588,3.75 0,2.45443 -0.86588,3.75 -0.85938,1.28906 -2.49349,1.28906 -1.63412,0 -2.5,-1.28906 -0.85938,-1.29557 -0.85938,-3.75 0,-2.46094 0.85938,-3.75 0.86588,-1.29557 2.5,-1.29557 z"
       style=""
       id="path1186" /></g><g
     aria-label="50"
     transform="matrix(1.5260903,0,0,1.5260903,-194.28386,-202.64964)"
     style="font-style:normal;font-variant:normal;font-weight:normal;font-stretch:normal;font-size:13.33333302px;line-height:1.25;font-family:'DejaVu Sans';-inkscape-font-specification:'DejaVu Sans, Normal';font-variant-ligatures:normal;font-variant-caps:normal;font-variant-numeric:normal;font-feature-settings:normal;text-align:start;letter-spacing:0px;word-spacing:0px;writing-mode:lr-tb;text-anchor:start;fill:#0094ce;fill-opacity:1;stroke:none"
     id="flowRoot1036"><path
       d="m 226.82943,167.7487 h 5.16276 v 1.10677 h -3.95834 v 2.38281 q 0.28646,-0.0977 0.57292,-0.14323 0.28646,-0.0521 0.57292,-0.0521 1.6276,0 2.57812,0.89193 0.95052,0.89192 0.95052,2.41536 0,1.56901 -0.97656,2.44141 -0.97656,0.86588 -2.75391,0.86588 -0.61197,0 -1.25,-0.10416 -0.63151,-0.10417 -1.30859,-0.3125 v -1.32162 q 0.58594,0.31901 1.21094,0.47526 0.625,0.15625 1.32161,0.15625 1.1263,0 1.78386,-0.59245 0.65755,-0.59244 0.65755,-1.60807 0,-1.01562 -0.65755,-1.60807 -0.65756,-0.59245 -1.78386,-0.59245 -0.52734,0 -1.05468,0.11719 -0.52084,0.11718 -1.06771,0.36458 z"
       style=""
       id="path1189" /><path
       d="m 238.11198,168.61458 q -1.01563,0 -1.52995,1.00261 -0.50781,0.99609 -0.50781,3.0013 0,1.9987 0.50781,3.0013 0.51432,0.9961 1.52995,0.9961 1.02213,0 1.52995,-0.9961 0.51432,-1.0026 0.51432,-3.0013 0,-2.00521 -0.51432,-3.0013 -0.50782,-1.00261 -1.52995,-1.00261 z m 0,-1.04166 q 1.63411,0 2.49349,1.29557 0.86588,1.28906 0.86588,3.75 0,2.45443 -0.86588,3.75 -0.85938,1.28906 -2.49349,1.28906 -1.63412,0 -2.5,-1.28906 -0.85938,-1.29557 -0.85938,-3.75 0,-2.46094 0.85938,-3.75 0.86588,-1.29557 2.5,-1.29557 z"
       style=""
       id="path1191" /></g><g
     aria-label="10"
     transform="matrix(1.5260903,0,0,1.5260903,-120.27156,-36.66522)"
     style="font-style:normal;font-variant:normal;font-weight:normal;font-stretch:normal;font-size:13.33333302px;line-height:1.25;font-family:'DejaVu Sans';-inkscape-font-specification:'DejaVu Sans, Normal';font-variant-ligatures:normal;font-variant-caps:normal;font-variant-numeric:normal;font-feature-settings:normal;text-align:start;letter-spacing:0px;word-spacing:0px;writing-mode:lr-tb;text-anchor:start;fill:#0094ce;fill-opacity:1;stroke:none"
     id="flowRoot1044"><path
       d="m 227.04427,176.36198 h 2.14844 v -7.41537 l -2.33724,0.46875 v -1.19791 l 2.32422,-0.46875 h 1.3151 v 8.61328 h 2.14844 v 1.10677 h -5.59896 z"
       style=""
       id="path1194" /><path
       d="m 238.11198,168.61458 q -1.01563,0 -1.52995,1.00261 -0.50781,0.99609 -0.50781,3.0013 0,1.9987 0.50781,3.0013 0.51432,0.9961 1.52995,0.9961 1.02213,0 1.52995,-0.9961 0.51432,-1.0026 0.51432,-3.0013 0,-2.00521 -0.51432,-3.0013 -0.50782,-1.00261 -1.52995,-1.00261 z m 0,-1.04166 q 1.63411,0 2.49349,1.29557 0.86588,1.28906 0.86588,3.75 0,2.45443 -0.86588,3.75 -0.85938,1.28906 -2.49349,1.28906 -1.63412,0 -2.5,-1.28906 -0.85938,-1.29557 -0.85938,-3.75 0,-2.46094 0.85938,-3.75 0.86588,-1.29557 2.5,-1.29557 z"
       style=""
       id="path1196" /></g><g
     aria-label="10"
     transform="matrix(1.5260903,0,0,1.5260903,-194.28386,-36.66522)"
     style="font-style:normal;font-variant:normal;font-weight:normal;font-stretch:normal;font-size:13.33333302px;line-height:1.25;font-family:'DejaVu Sans';-inkscape-font-specification:'DejaVu Sans, Normal';font-variant-ligatures:normal;font-variant-caps:normal;font-variant-numeric:normal;font-feature-settings:normal;text-align:start;letter-spacing:0px;word-spacing:0px;writing-mode:lr-tb;text-anchor:start;fill:#0094ce;fill-opacity:1;stroke:none"
     id="flowRoot1052"><path
       d="m 227.04427,176.36198 h 2.14844 v -7.41537 l -2.33724,0.46875 v -1.19791 l 2.32422,-0.46875 h 1.3151 v 8.61328 h 2.14844 v 1.10677 h -5.59896 z"
       style=""
       id="path1199" /><path
       d="m 238.11198,168.61458 q -1.01563,0 -1.52995,1.00261 -0.50781,0.99609 -0.50781,3.0013 0,1.9987 0.50781,3.0013 0.51432,0.9961 1.52995,0.9961 1.02213,0 1.52995,-0.9961 0.51432,-1.0026 0.51432,-3.0013 0,-2.00521 -0.51432,-3.0013 -0.50782,-1.00261 -1.52995,-1.00261 z m 0,-1.04166 q 1.63411,0 2.49349,1.29557 0.86588,1.28906 0.86588,3.75 0,2.45443 -0.86588,3.75 -0.85938,1.28906 -2.49349,1.28906 -1.63412,0 -2.5,-1.28906 -0.85938,-1.29557 -0.85938,-3.75 0,-2.46094 0.85938,-3.75 0.86588,-1.29557 2.5,-1.29557 z"
       style=""
       id="path1201" /></g><g
     aria-label="20"
     transform="matrix(1.5260903,0,0,1.5260903,-204.47028,-8.467471)"
     style="font-style:normal;font-variant:normal;font-weight:normal;font-stretch:normal;font-size:13.33333302px;line-height:1.25;font-family:'DejaVu Sans';-inkscape-font-specification:'DejaVu Sans, Normal';font-variant-ligatures:normal;font-variant-caps:normal;font-variant-numeric:normal;font-feature-settings:normal;text-align:start;letter-spacing:0px;word-spacing:0px;writing-mode:lr-tb;text-anchor:start;fill:#0094ce;fill-opacity:1;stroke:none"
     id="flowRoot1060"><path
       d="m 227.94922,176.36198 h 4.58984 v 1.10677 h -6.17187 v -1.10677 q 0.7487,-0.77474 2.03776,-2.07682 1.29557,-1.3086 1.6276,-1.6862 0.63151,-0.70964 0.87891,-1.19792 0.2539,-0.49479 0.2539,-0.97005 0,-0.77474 -0.54687,-1.26302 -0.54037,-0.48828 -1.41276,-0.48828 -0.61849,0 -1.30859,0.21484 -0.6836,0.21484 -1.46485,0.65104 v -1.32812 q 0.79427,-0.31901 1.48438,-0.48177 0.6901,-0.16276 1.26302,-0.16276 1.51041,0 2.40885,0.7552 0.89844,0.75521 0.89844,2.01823 0,0.59896 -0.22787,1.13933 -0.22135,0.53385 -0.8138,1.26302 -0.16276,0.1888 -1.03515,1.09375 -0.8724,0.89844 -2.46094,2.51953 z"
       style=""
       id="path1204" /><path
       d="m 238.11198,168.61458 q -1.01563,0 -1.52995,1.00261 -0.50781,0.99609 -0.50781,3.0013 0,1.9987 0.50781,3.0013 0.51432,0.9961 1.52995,0.9961 1.02213,0 1.52995,-0.9961 0.51432,-1.0026 0.51432,-3.0013 0,-2.00521 -0.51432,-3.0013 -0.50782,-1.00261 -1.52995,-1.00261 z m 0,-1.04166 q 1.63411,0 2.49349,1.29557 0.86588,1.28906 0.86588,3.75 0,2.45443 -0.86588,3.75 -0.85938,1.28906 -2.49349,1.28906 -1.63412,0 -2.5,-1.28906 -0.85938,-1.29557 -0.85938,-3.75 0,-2.46094 0.85938,-3.75 0.86588,-1.29557 2.5,-1.29557 z"
       style=""
       id="path1206" /></g><g
     aria-label="20"
     transform="matrix(1.5260903,0,0,1.5260903,-109.39699,-8.467471)"
     style="font-style:normal;font-variant:normal;font-weight:normal;font-stretch:normal;font-size:13.33333302px;line-height:1.25;font-family:'DejaVu Sans';-inkscape-font-specification:'DejaVu Sans, Normal';font-variant-ligatures:normal;font-variant-caps:normal;font-variant-numeric:normal;font-feature-settings:normal;text-align:start;letter-spacing:0px;word-spacing:0px;writing-mode:lr-tb;text-anchor:start;fill:#0094ce;fill-opacity:1;stroke:none"
     id="flowRoot1068"><path
       d="m 227.94922,176.36198 h 4.58984 v 1.10677 h -6.17187 v -1.10677 q 0.7487,-0.77474 2.03776,-2.07682 1.29557,-1.3086 1.6276,-1.6862 0.63151,-0.70964 0.87891,-1.19792 0.2539,-0.49479 0.2539,-0.97005 0,-0.77474 -0.54687,-1.26302 -0.54037,-0.48828 -1.41276,-0.48828 -0.61849,0 -1.30859,0.21484 -0.6836,0.21484 -1.46485,0.65104 v -1.32812 q 0.79427,-0.31901 1.48438,-0.48177 0.6901,-0.16276 1.26302,-0.16276 1.51041,0 2.40885,0.7552 0.89844,0.75521 0.89844,2.01823 0,0.59896 -0.22787,1.13933 -0.22135,0.53385 -0.8138,1.26302 -0.16276,0.1888 -1.03515,1.09375 -0.8724,0.89844 -2.46094,2.51953 z"
       style=""
       id="path1209" /><path
       d="m 238.11198,168.61458 q -1.01563,0 -1.52995,1.00261 -0.50781,0.99609 -0.50781,3.0013 0,1.9987 0.50781,3.0013 0.51432,0.9961 1.52995,0.9961 1.02213,0 1.52995,-0.9961 0.51432,-1.0026 0.51432,-3.0013 0,-2.00521 -0.51432,-3.0013 -0.50782,-1.00261 -1.52995,-1.00261 z m 0,-1.04166 q 1.63411,0 2.49349,1.29557 0.86588,1.28906 0.86588,3.75 0,2.45443 -0.86588,3.75 -0.85938,1.28906 -2.49349,1.28906 -1.63412,0 -2.5,-1.28906 -0.85938,-1.29557 -0.85938,-3.75 0,-2.46094 0.85938,-3.75 0.86588,-1.29557 2.5,-1.29557 z"
       style=""
       id="path1211" /></g><g
     aria-label="30"
     transform="matrix(1.5260903,0,0,1.5260903,-120.27156,19.766689)"
     style="font-style:normal;font-variant:normal;font-weight:normal;font-stretch:normal;font-size:13.33333302px;line-height:1.25;font-family:'DejaVu Sans';-inkscape-font-specification:'DejaVu Sans, Normal';font-variant-ligatures:normal;font-variant-caps:normal;font-variant-numeric:normal;font-feature-settings:normal;text-align:start;letter-spacing:0px;word-spacing:0px;writing-mode:lr-tb;text-anchor:start;fill:#0094ce;fill-opacity:1;stroke:none"
     id="flowRoot1076"><path
       d="m 230.80078,172.22786 q 0.94401,0.20183 1.47136,0.83985 0.53385,0.63802 0.53385,1.57552 0,1.4388 -0.98958,2.22656 -0.98959,0.78776 -2.8125,0.78776 -0.61198,0 -1.26302,-0.1237 -0.64454,-0.11718 -1.33464,-0.35807 v -1.26953 q 0.54687,0.31901 1.19792,0.48177 0.65104,0.16276 1.36067,0.16276 1.23698,0 1.88151,-0.48828 0.65105,-0.48828 0.65105,-1.41927 0,-0.85938 -0.60547,-1.34115 -0.59896,-0.48828 -1.67318,-0.48828 h -1.13281 v -1.08073 h 1.18489 q 0.97006,0 1.48438,-0.38411 0.51432,-0.39063 0.51432,-1.11979 0,-0.7487 -0.53385,-1.14584 -0.52735,-0.40364 -1.51693,-0.40364 -0.54036,0 -1.15885,0.11718 -0.61849,0.11719 -1.36068,0.36459 v -1.17188 q 0.7487,-0.20833 1.39974,-0.3125 0.65755,-0.10416 1.23698,-0.10416 1.49739,0 2.36979,0.68359 0.87239,0.67708 0.87239,1.83594 0,0.80729 -0.46223,1.36719 -0.46224,0.55338 -1.31511,0.76822 z"
       style=""
       id="path1214" /><path
       d="m 238.11198,168.61458 q -1.01563,0 -1.52995,1.00261 -0.50781,0.99609 -0.50781,3.0013 0,1.9987 0.50781,3.0013 0.51432,0.9961 1.52995,0.9961 1.02213,0 1.52995,-0.9961 0.51432,-1.0026 0.51432,-3.0013 0,-2.00521 -0.51432,-3.0013 -0.50782,-1.00261 -1.52995,-1.00261 z m 0,-1.04166 q 1.63411,0 2.49349,1.29557 0.86588,1.28906 0.86588,3.75 0,2.45443 -0.86588,3.75 -0.85938,1.28906 -2.49349,1.28906 -1.63412,0 -2.5,-1.28906 -0.85938,-1.29557 -0.85938,-3.75 0,-2.46094 0.85938,-3.75 0.86588,-1.29557 2.5,-1.29557 z"
       style=""
       id="path1216" /></g><g
     aria-label="30"
     transform="matrix(1.5260903,0,0,1.5260903,-194.28386,19.766689)"
     style="font-style:normal;font-variant:normal;font-weight:normal;font-stretch:normal;font-size:13.33333302px;line-height:1.25;font-family:'DejaVu Sans';-inkscape-font-specification:'DejaVu Sans, Normal';font-variant-ligatures:normal;font-variant-caps:normal;font-variant-numeric:normal;font-feature-settings:normal;text-align:start;letter-spacing:0px;word-spacing:0px;writing-mode:lr-tb;text-anchor:start;fill:#0094ce;fill-opacity:1;stroke:none"
     id="flowRoot1084"><path
       d="m 230.80078,172.22786 q 0.94401,0.20183 1.47136,0.83985 0.53385,0.63802 0.53385,1.57552 0,1.4388 -0.98958,2.22656 -0.98959,0.78776 -2.8125,0.78776 -0.61198,0 -1.26302,-0.1237 -0.64454,-0.11718 -1.33464,-0.35807 v -1.26953 q 0.54687,0.31901 1.19792,0.48177 0.65104,0.16276 1.36067,0.16276 1.23698,0 1.88151,-0.48828 0.65105,-0.48828 0.65105,-1.41927 0,-0.85938 -0.60547,-1.34115 -0.59896,-0.48828 -1.67318,-0.48828 h -1.13281 v -1.08073 h 1.18489 q 0.97006,0 1.48438,-0.38411 0.51432,-0.39063 0.51432,-1.11979 0,-0.7487 -0.53385,-1.14584 -0.52735,-0.40364 -1.51693,-0.40364 -0.54036,0 -1.15885,0.11718 -0.61849,0.11719 -1.36068,0.36459 v -1.17188 q 0.7487,-0.20833 1.39974,-0.3125 0.65755,-0.10416 1.23698,-0.10416 1.49739,0 2.36979,0.68359 0.87239,0.67708 0.87239,1.83594 0,0.80729 -0.46223,1.36719 -0.46224,0.55338 -1.31511,0.76822 z"
       style=""
       id="path1219" /><path
       d="m 238.11198,168.61458 q -1.01563,0 -1.52995,1.00261 -0.50781,0.99609 -0.50781,3.0013 0,1.9987 0.50781,3.0013 0.51432,0.9961 1.52995,0.9961 1.02213,0 1.52995,-0.9961 0.51432,-1.0026 0.51432,-3.0013 0,-2.00521 -0.51432,-3.0013 -0.50782,-1.00261 -1.52995,-1.00261 z m 0,-1.04166 q 1.63411,0 2.49349,1.29557 0.86588,1.28906 0.86588,3.75 0,2.45443 -0.86588,3.75 -0.85938,1.28906 -2.49349,1.28906 -1.63412,0 -2.5,-1.28906 -0.85938,-1.29557 -0.85938,-3.75 0,-2.46094 0.85938,-3.75 0.86588,-1.29557 2.5,-1.29557 z"
       style=""
       id="path1221" /></g><g
     aria-label="40"
     transform="matrix(1.5260903,0,0,1.5260903,-204.47028,46.851859)"
     style="font-style:normal;font-variant:normal;font-weight:normal;font-stretch:normal;font-size:13.33333302px;line-height:1.25;font-family:'DejaVu Sans';-inkscape-font-specification:'DejaVu Sans, Normal';font-variant-ligatures:normal;font-variant-caps:normal;font-variant-numeric:normal;font-feature-settings:normal;text-align:start;letter-spacing:0px;word-spacing:0px;writing-mode:lr-tb;text-anchor:start;fill:#0094ce;fill-opacity:1;stroke:none"
     id="flowRoot1092"><path
       d="m 230.42969,168.89453 -3.32032,5.1888 h 3.32032 z m -0.34505,-1.14583 h 1.65364 v 6.33463 h 1.38672 v 1.09375 h -1.38672 v 2.29167 h -1.30859 v -2.29167 h -4.38802 v -1.26953 z"
       style=""
       id="path1224" /><path
       d="m 238.11198,168.61458 q -1.01563,0 -1.52995,1.00261 -0.50781,0.99609 -0.50781,3.0013 0,1.9987 0.50781,3.0013 0.51432,0.9961 1.52995,0.9961 1.02213,0 1.52995,-0.9961 0.51432,-1.0026 0.51432,-3.0013 0,-2.00521 -0.51432,-3.0013 -0.50782,-1.00261 -1.52995,-1.00261 z m 0,-1.04166 q 1.63411,0 2.49349,1.29557 0.86588,1.28906 0.86588,3.75 0,2.45443 -0.86588,3.75 -0.85938,1.28906 -2.49349,1.28906 -1.63412,0 -2.5,-1.28906 -0.85938,-1.29557 -0.85938,-3.75 0,-2.46094 0.85938,-3.75 0.86588,-1.29557 2.5,-1.29557 z"
       style=""
       id="path1226" /></g><g
     aria-label="40"
     transform="matrix(1.5260903,0,0,1.5260903,-109.39699,46.851859)"
     style="font-style:normal;font-variant:normal;font-weight:normal;font-stretch:normal;font-size:13.33333302px;line-height:1.25;font-family:'DejaVu Sans';-inkscape-font-specification:'DejaVu Sans, Normal';font-variant-ligatures:normal;font-variant-caps:normal;font-variant-numeric:normal;font-feature-settings:normal;text-align:start;letter-spacing:0px;word-spacing:0px;writing-mode:lr-tb;text-anchor:start;fill:#0094ce;fill-opacity:1;stroke:none"
     id="flowRoot1100"><path
       d="m 230.42969,168.89453 -3.32032,5.1888 h 3.32032 z m -0.34505,-1.14583 h 1.65364 v 6.33463 h 1.38672 v 1.09375 h -1.38672 v 2.29167 h -1.30859 v -2.29167 h -4.38802 v -1.26953 z"
       style=""
       id="path1229" /><path
       d="m 238.11198,168.61458 q -1.01563,0 -1.52995,1.00261 -0.50781,0.99609 -0.50781,3.0013 0,1.9987 0.50781,3.0013 0.51432,0.9961 1.52995,0.9961 1.02213,0 1.52995,-0.9961 0.51432,-1.0026 0.51432,-3.0013 0,-2.00521 -0.51432,-3.0013 -0.50782,-1.00261 -1.52995,-1.00261 z m 0,-1.04166 q 1.63411,0 2.49349,1.29557 0.86588,1.28906 0.86588,3.75 0,2.45443 -0.86588,3.75 -0.85938,1.28906 -2.49349,1.28906 -1.63412,0 -2.5,-1.28906 -0.85938,-1.29557 -0.85938,-3.75 0,-2.46094 0.85938,-3.75 0.86588,-1.29557 2.5,-1.29557 z"
       style=""
       id="path1231" /></g><g
     aria-label="50"
     transform="matrix(1.5260903,0,0,1.5260903,-120.27156,75.561951)"
     style="font-style:normal;font-variant:normal;font-weight:normal;font-stretch:normal;font-size:13.33333302px;line-height:1.25;font-family:'DejaVu Sans';-inkscape-font-specification:'DejaVu Sans, Normal';font-variant-ligatures:normal;font-variant-caps:normal;font-variant-numeric:normal;font-feature-settings:normal;text-align:start;letter-spacing:0px;word-spacing:0px;writing-mode:lr-tb;text-anchor:start;fill:#0094ce;fill-opacity:1;stroke:none"
     id="flowRoot1108"><path
       d="m 226.82943,167.7487 h 5.16276 v 1.10677 h -3.95834 v 2.38281 q 0.28646,-0.0977 0.57292,-0.14323 0.28646,-0.0521 0.57292,-0.0521 1.6276,0 2.57812,0.89193 0.95052,0.89192 0.95052,2.41536 0,1.56901 -0.97656,2.44141 -0.97656,0.86588 -2.75391,0.86588 -0.61197,0 -1.25,-0.10416 -0.63151,-0.10417 -1.30859,-0.3125 v -1.32162 q 0.58594,0.31901 1.21094,0.47526 0.625,0.15625 1.32161,0.15625 1.1263,0 1.78386,-0.59245 0.65755,-0.59244 0.65755,-1.60807 0,-1.01562 -0.65755,-1.60807 -0.65756,-0.59245 -1.78386,-0.59245 -0.52734,0 -1.05468,0.11719 -0.52084,0.11718 -1.06771,0.36458 z"
       style=""
       id="path1234" /><path
       d="m 238.11198,168.61458 q -1.01563,0 -1.52995,1.00261 -0.50781,0.99609 -0.50781,3.0013 0,1.9987 0.50781,3.0013 0.51432,0.9961 1.52995,0.9961 1.02213,0 1.52995,-0.9961 0.51432,-1.0026 0.51432,-3.0013 0,-2.00521 -0.51432,-3.0013 -0.50782,-1.00261 -1.52995,-1.00261 z m 0,-1.04166 q 1.63411,0 2.49349,1.29557 0.86588,1.28906 0.86588,3.75 0,2.45443 -0.86588,3.75 -0.85938,1.28906 -2.49349,1.28906 -1.63412,0 -2.5,-1.28906 -0.85938,-1.29557 -0.85938,-3.75 0,-2.46094 0.85938,-3.75 0.86588,-1.29557 2.5,-1.29557 z"
       style=""
       id="path1236" /></g><g
     aria-label="50"
     transform="matrix(1.5260903,0,0,1.5260903,-194.28386,75.561951)"
     style="font-style:normal;font-variant:normal;font-weight:normal;font-stretch:normal;font-size:13.33333302px;line-height:1.25;font-family:'DejaVu Sans';-inkscape-font-specification:'DejaVu Sans, Normal';font-variant-ligatures:normal;font-variant-caps:normal;font-variant-numeric:normal;font-feature-settings:normal;text-align:start;letter-spacing:0px;word-spacing:0px;writing-mode:lr-tb;text-anchor:start;fill:#0094ce;fill-opacity:1;stroke:none"
     id="flowRoot1116"><path
       d="m 226.82943,167.7487 h 5.16276 v 1.10677 h -3.95834 v 2.38281 q 0.28646,-0.0977 0.57292,-0.14323 0.28646,-0.0521 0.57292,-0.0521 1.6276,0 2.57812,0.89193 0.95052,0.89192 0.95052,2.41536 0,1.56901 -0.97656,2.44141 -0.97656,0.86588 -2.75391,0.86588 -0.61197,0 -1.25,-0.10416 -0.63151,-0.10417 -1.30859,-0.3125 v -1.32162 q 0.58594,0.31901 1.21094,0.47526 0.625,0.15625 1.32161,0.15625 1.1263,0 1.78386,-0.59245 0.65755,-0.59244 0.65755,-1.60807 0,-1.01562 -0.65755,-1.60807 -0.65756,-0.59245 -1.78386,-0.59245 -0.52734,0 -1.05468,0.11719 -0.52084,0.11718 -1.06771,0.36458 z"
       style=""
       id="path1239" /><path
       d="m 238.11198,168.61458 q -1.01563,0 -1.52995,1.00261 -0.50781,0.99609 -0.50781,3.0013 0,1.9987 0.50781,3.0013 0.51432,0.9961 1.52995,0.9961 1.02213,0 1.52995,-0.9961 0.51432,-1.0026 0.51432,-3.0013 0,-2.00521 -0.51432,-3.0013 -0.50782,-1.00261 -1.52995,-1.00261 z m 0,-1.04166 q 1.63411,0 2.49349,1.29557 0.86588,1.28906 0.86588,3.75 0,2.45443 -0.86588,3.75 -0.85938,1.28906 -2.49349,1.28906 -1.63412,0 -2.5,-1.28906 -0.85938,-1.29557 -0.85938,-3.75 0,-2.46094 0.85938,-3.75 0.86588,-1.29557 2.5,-1.29557 z"
       style=""
       id="path1241" /></g><g
     aria-label="60"
     transform="matrix(1.5260903,0,0,1.5260903,-204.47028,104.48425)"
     style="font-style:normal;font-variant:normal;font-weight:normal;font-stretch:normal;font-size:13.33333302px;line-height:1.25;font-family:'DejaVu Sans';-inkscape-font-specification:'DejaVu Sans, Normal';font-variant-ligatures:normal;font-variant-caps:normal;font-variant-numeric:normal;font-feature-settings:normal;text-align:start;letter-spacing:0px;word-spacing:0px;writing-mode:lr-tb;text-anchor:start;fill:#0094ce;fill-opacity:1;stroke:none"
     id="flowRoot1124"><path
       d="m 229.79167,172.08464 q -0.88542,0 -1.40625,0.60546 -0.51433,0.60547 -0.51433,1.66016 0,1.04818 0.51433,1.66016 0.52083,0.60547 1.40625,0.60547 0.88541,0 1.39974,-0.60547 0.52083,-0.61198 0.52083,-1.66016 0,-1.05469 -0.52083,-1.66016 -0.51433,-0.60546 -1.39974,-0.60546 z m 2.61067,-4.1211 v 1.19792 q -0.49479,-0.23438 -1.0026,-0.35807 -0.5013,-0.1237 -0.99609,-0.1237 -1.30209,0 -1.99219,0.8789 -0.6836,0.87891 -0.78125,2.65625 0.38411,-0.5664 0.96354,-0.86588 0.57943,-0.30599 1.27604,-0.30599 1.46485,0 2.3112,0.89193 0.85286,0.88541 0.85286,2.41536 0,1.4974 -0.88541,2.40234 -0.88542,0.90495 -2.35677,0.90495 -1.6862,0 -2.57813,-1.28906 -0.89193,-1.29557 -0.89193,-3.75 0,-2.30469 1.09375,-3.67188 1.09375,-1.37369 2.9362,-1.37369 0.49479,0 0.9961,0.0976 0.50781,0.0977 1.05468,0.29297 z"
       style=""
       id="path1244" /><path
       d="m 238.11198,168.61458 q -1.01563,0 -1.52995,1.00261 -0.50781,0.99609 -0.50781,3.0013 0,1.9987 0.50781,3.0013 0.51432,0.9961 1.52995,0.9961 1.02213,0 1.52995,-0.9961 0.51432,-1.0026 0.51432,-3.0013 0,-2.00521 -0.51432,-3.0013 -0.50782,-1.00261 -1.52995,-1.00261 z m 0,-1.04166 q 1.63411,0 2.49349,1.29557 0.86588,1.28906 0.86588,3.75 0,2.45443 -0.86588,3.75 -0.85938,1.28906 -2.49349,1.28906 -1.63412,0 -2.5,-1.28906 -0.85938,-1.29557 -0.85938,-3.75 0,-2.46094 0.85938,-3.75 0.86588,-1.29557 2.5,-1.29557 z"
       style=""
       id="path1246" /></g><g
     aria-label="60"
     transform="matrix(1.5260903,0,0,1.5260903,-109.39699,104.48425)"
     style="font-style:normal;font-variant:normal;font-weight:normal;font-stretch:normal;font-size:13.33333302px;line-height:1.25;font-family:'DejaVu Sans';-inkscape-font-specification:'DejaVu Sans, Normal';font-variant-ligatures:normal;font-variant-caps:normal;font-variant-numeric:normal;font-feature-settings:normal;text-align:start;letter-spacing:0px;word-spacing:0px;writing-mode:lr-tb;text-anchor:start;fill:#0094ce;fill-opacity:1;stroke:none"
     id="flowRoot1132"><path
       d="m 229.79167,172.08464 q -0.88542,0 -1.40625,0.60546 -0.51433,0.60547 -0.51433,1.66016 0,1.04818 0.51433,1.66016 0.52083,0.60547 1.40625,0.60547 0.88541,0 1.39974,-0.60547 0.52083,-0.61198 0.52083,-1.66016 0,-1.05469 -0.52083,-1.66016 -0.51433,-0.60546 -1.39974,-0.60546 z m 2.61067,-4.1211 v 1.19792 q -0.49479,-0.23438 -1.0026,-0.35807 -0.5013,-0.1237 -0.99609,-0.1237 -1.30209,0 -1.99219,0.8789 -0.6836,0.87891 -0.78125,2.65625 0.38411,-0.5664 0.96354,-0.86588 0.57943,-0.30599 1.27604,-0.30599 1.46485,0 2.3112,0.89193 0.85286,0.88541 0.85286,2.41536 0,1.4974 -0.88541,2.40234 -0.88542,0.90495 -2.35677,0.90495 -1.6862,0 -2.57813,-1.28906 -0.89193,-1.29557 -0.89193,-3.75 0,-2.30469 1.09375,-3.67188 1.09375,-1.37369 2.9362,-1.37369 0.49479,0 0.9961,0.0976 0.50781,0.0977 1.05468,0.29297 z"
       style=""
       id="path1249" /><path
       d="m 238.11198,168.61458 q -1.01563,0 -1.52995,1.00261 -0.50781,0.99609 -0.50781,3.0013 0,1.9987 0.50781,3.0013 0.51432,0.9961 1.52995,0.9961 1.02213,0 1.52995,-0.9961 0.51432,-1.0026 0.51432,-3.0013 0,-2.00521 -0.51432,-3.0013 -0.50782,-1.00261 -1.52995,-1.00261 z m 0,-1.04166 q 1.63411,0 2.49349,1.29557 0.86588,1.28906 0.86588,3.75 0,2.45443 -0.86588,3.75 -0.85938,1.28906 -2.49349,1.28906 -1.63412,0 -2.5,-1.28906 -0.85938,-1.29557 -0.85938,-3.75 0,-2.46094 0.85938,-3.75 0.86588,-1.29557 2.5,-1.29557 z"
       style=""
       id="path1251" /></g></g></svg>